# Blender 4.5.3 LTS
# www.blender.org
mtllib BaseD8.mtl
o D8Model
v -1.030000 0.000000 1.030000
v 1.030000 0.000000 1.030000
v -1.030000 0.000000 -1.030000
v 1.030000 0.000000 -1.030000
v 0.000000 -1.400000 0.000000
v 0.000000 1.400000 0.000000
v -0.803892 -0.103775 0.953651
v 0.803892 -0.103775 0.953651
v 0.000000 -1.196445 0.149759
v 0.149759 -1.196445 0.000000
v 0.953651 -0.103775 0.803892
v 0.953651 -0.103775 -0.803892
v 0.803892 -0.103775 -0.953651
v -0.803892 -0.103775 -0.953651
v 0.000000 -1.196445 -0.149759
v -0.953651 -0.103775 -0.803892
v -0.953651 -0.103775 0.803892
v -0.149759 -1.196445 0.000000
v -0.803892 0.103775 -0.953651
v 0.803892 0.103775 -0.953651
v 0.000000 1.196445 -0.149759
v 0.149759 1.196445 0.000000
v 0.953651 0.103775 -0.803892
v 0.953651 0.103775 0.803892
v 0.803892 0.103775 0.953651
v -0.803892 0.103775 0.953651
v 0.000000 1.196445 0.149759
v -0.953651 0.103775 0.803892
v -0.953651 0.103775 -0.803892
v -0.149759 1.196445 0.000000
v -0.803892 -0.044514 0.873102
v 0.803892 -0.044514 0.873102
v -0.000000 -1.137184 0.069210
v 0.069210 -1.137184 0.000000
v 0.873102 -0.044514 0.803892
v 0.873102 -0.044514 -0.803892
v 0.803892 -0.044514 -0.873102
v -0.803892 -0.044514 -0.873102
v 0.000000 -1.137184 -0.069210
v -0.873102 -0.044514 -0.803892
v -0.873102 -0.044514 0.803892
v -0.069210 -1.137184 -0.000000
v -0.803892 0.044514 -0.873102
v 0.803892 0.044514 -0.873102
v -0.000000 1.137184 -0.069210
v 0.069210 1.137184 -0.000000
v 0.873102 0.044514 -0.803892
v 0.873102 0.044514 0.803892
v 0.803892 0.044514 0.873102
v -0.803892 0.044514 0.873102
v 0.000000 1.137184 0.069210
v -0.873102 0.044514 0.803892
v -0.873102 0.044514 -0.803892
v -0.069210 1.137184 0.000000
vn -0.0000 0.5926 -0.8055
vn -0.8055 0.5926 -0.0000
vn -0.0000 0.5926 0.8055
vn 0.8055 0.5926 -0.0000
vn -0.0000 -0.5926 0.8055
vn -0.8055 -0.5926 -0.0000
vn -0.0000 -0.5926 -0.8055
vn 0.8055 -0.5926 -0.0000
vn -0.0000 0.8055 0.5926
vn 0.8603 -0.4106 -0.3021
vn -0.8603 -0.4106 -0.3021
vn -0.3021 -0.4106 0.8603
vn 0.5926 0.8055 -0.0000
vn -0.3021 -0.4106 -0.8603
vn -0.0000 0.8055 -0.5926
vn -0.8603 -0.4106 0.3021
vn 0.8603 -0.4106 0.3021
vn -0.5926 0.8055 -0.0000
vn 0.3021 -0.4106 0.8603
vn 0.3021 -0.4106 -0.8603
vn -0.0000 -0.8055 -0.5926
vn 0.8603 0.4106 0.3021
vn -0.8603 0.4106 0.3021
vn -0.3021 0.4106 -0.8603
vn 0.5926 -0.8055 -0.0000
vn -0.3021 0.4106 0.8603
vn -0.0000 -0.8055 0.5926
vn -0.8603 0.4106 -0.3021
vn 0.8603 0.4106 -0.3021
vn -0.5926 -0.8055 -0.0000
vn 0.3021 0.4106 -0.8603
vn 0.3021 0.4106 0.8603
vt 0.000000 0.000000
vt 1.000000 0.000000
vt 0.890239 0.037063
vt 0.109761 0.037063
vt 0.500000 0.500000
vt 0.500000 0.427302
vt 0.962937 0.109761
vt 0.572698 0.500000
vt 1.000000 1.000000
vt 0.962937 0.890239
vt 0.000000 1.000000
vt 0.109761 0.962937
vt 0.890239 0.962937
vt 0.500000 0.572698
vt 0.037063 0.109761
vt 0.037063 0.890239
vt 0.427302 0.500000
vt 0.962937 0.890239
vt 0.962937 0.109761
s 0
f 1/1/1 2/2/1 8/3/1 7/4/1
f 2/2/1 5/5/1 9/6/1 8/3/1
f 5/5/1 1/1/1 7/4/1 9/6/1
f 5/5/2 2/2/2 11/7/2 10/8/2
f 2/2/2 4/9/2 12/10/2 11/7/2
f 4/9/2 5/5/2 10/8/2 12/10/2
f 4/9/3 3/11/3 14/12/3 13/13/3
f 3/11/3 5/5/3 15/14/3 14/12/3
f 5/5/3 4/9/3 13/13/3 15/14/3
f 3/11/4 1/1/4 17/15/4 16/16/4
f 1/1/4 5/5/4 18/17/4 17/15/4
f 5/5/4 3/11/4 16/16/4 18/17/4
f 3/11/5 4/9/5 20/13/5 19/12/5
f 4/9/5 6/5/5 21/14/5 20/13/5
f 6/5/5 3/11/5 19/12/5 21/14/5
f 6/5/6 4/9/6 23/18/6 22/8/6
f 4/9/6 2/2/6 24/19/6 23/18/6
f 2/2/6 6/5/6 22/8/6 24/19/6
f 2/2/7 1/1/7 26/4/7 25/3/7
f 1/1/7 6/5/7 27/6/7 26/4/7
f 6/5/7 2/2/7 25/3/7 27/6/7
f 1/1/8 3/11/8 29/16/8 28/15/8
f 3/11/8 6/5/8 30/17/8 29/16/8
f 6/5/8 1/1/8 28/15/8 30/17/8
f 31/4/1 32/3/1 33/6/1
f 8/3/9 32/3/9 31/4/9 7/4/9
f 9/6/10 33/6/10 32/3/10 8/3/10
f 7/4/11 31/4/11 33/6/11 9/6/11
f 34/8/2 35/7/2 36/10/2
f 11/7/12 35/7/12 34/8/12 10/8/12
f 12/10/13 36/10/13 35/7/13 11/7/13
f 10/8/14 34/8/14 36/10/14 12/10/14
f 37/13/3 38/12/3 39/14/3
f 14/12/15 38/12/15 37/13/15 13/13/15
f 15/14/16 39/14/16 38/12/16 14/12/16
f 13/13/17 37/13/17 39/14/17 15/14/17
f 40/16/4 41/15/4 42/17/4
f 17/15/18 41/15/18 40/16/18 16/16/18
f 18/17/19 42/17/19 41/15/19 17/15/19
f 16/16/20 40/16/20 42/17/20 18/17/20
f 43/12/5 44/13/5 45/14/5
f 20/13/21 44/13/21 43/12/21 19/12/21
f 21/14/22 45/14/22 44/13/22 20/13/22
f 19/12/23 43/12/23 45/14/23 21/14/23
f 46/8/6 47/18/6 48/19/6
f 23/18/24 47/18/24 46/8/24 22/8/24
f 24/19/25 48/19/25 47/18/25 23/18/25
f 22/8/26 46/8/26 48/19/26 24/19/26
f 49/3/7 50/4/7 51/6/7
f 26/4/27 50/4/27 49/3/27 25/3/27
f 27/6/28 51/6/28 50/4/28 26/4/28
f 25/3/29 49/3/29 51/6/29 27/6/29
f 52/15/8 53/16/8 54/17/8
f 29/16/30 53/16/30 52/15/30 28/15/30
f 30/17/31 54/17/31 53/16/31 29/16/31
f 28/15/32 52/15/32 54/17/32 30/17/32
