# Blender 4.5.3 LTS
# www.blender.org
mtllib BaseD12.mtl
o D12Model
v 0.823639 0.500000 -0.267617
v 0.509037 0.500000 0.700629
v -0.509037 0.500000 0.700629
v -0.823639 -0.366026 1.133641
v 1.332675 -0.901259 0.433012
v 0.000000 0.500000 -0.866025
v -0.823639 0.500000 -0.267617
v -1.332675 -0.366026 -0.433013
v 0.823638 -1.767285 0.267616
v -0.509038 -1.767285 -0.700630
v -0.823640 -1.767285 0.267616
v -0.000001 -0.366026 -1.401258
v -0.823640 -0.901259 -1.133642
v 1.332674 -0.366026 -0.433013
v 0.509036 -1.767285 -0.700630
v 0.823637 -0.901259 -1.133642
v 0.823638 -0.366026 1.133640
v -0.000001 -0.901259 1.401257
v -1.332676 -0.901259 0.433011
v -0.000001 -1.767285 0.866025
v 0.609857 0.500000 -0.198155
v -0.000000 0.500000 -0.641242
v -0.609857 0.500000 -0.198155
v -0.376913 0.500000 0.518776
v 0.376912 0.500000 0.518776
v -0.609857 -0.303897 1.102577
v -0.000001 -0.700207 1.300731
v 0.609856 -0.303897 1.102576
v 0.376912 0.337345 0.781957
v -0.376913 0.337345 0.781957
v 0.860156 -0.303897 0.920722
v 1.237069 -0.700206 0.401948
v 1.237068 -0.303897 -0.239294
v 0.860157 0.337345 -0.116827
v 0.627213 0.337345 0.600103
v 1.141462 -0.303897 -0.533539
v 0.764550 -0.700206 -1.052315
v 0.154693 -0.303897 -1.250468
v 0.154694 0.337345 -0.854160
v 0.764551 0.337345 -0.411073
v -0.154695 -0.303897 -1.250468
v -0.764552 -0.700206 -1.052315
v -1.141463 -0.303897 -0.533539
v -0.764551 0.337345 -0.411073
v -0.154694 0.337345 -0.854160
v -1.237069 -0.303897 -0.239294
v -1.237070 -0.700207 0.401947
v -0.860157 -0.303897 0.920723
v -0.627213 0.337345 0.600103
v -0.860157 0.337345 -0.116827
v 0.609856 -1.767285 0.198154
v -0.000001 -1.767285 0.641241
v -0.609858 -1.767285 0.198154
v -0.376913 -1.767285 -0.518776
v 0.376912 -1.767285 -0.518776
v -0.609858 -0.963388 -1.102578
v -0.000001 -0.567078 -1.300732
v 0.609856 -0.963388 -1.102578
v 0.376912 -1.604630 -0.781957
v -0.376913 -1.604630 -0.781957
v 0.860156 -0.963388 -0.920724
v 1.237068 -0.567078 -0.401949
v 1.237069 -0.963388 0.239293
v 0.860157 -1.604630 0.116826
v 0.627212 -1.604630 -0.600104
v 1.141462 -0.963388 0.533539
v 0.764550 -0.567079 1.052313
v 0.154693 -0.963388 1.250468
v 0.154693 -1.604630 0.854159
v 0.764550 -1.604630 0.411072
v -0.154695 -0.963388 1.250468
v -0.764551 -0.567078 1.052314
v -1.141464 -0.963388 0.533538
v -0.764552 -1.604630 0.411072
v -0.154695 -1.604630 0.854159
v -1.237070 -0.963388 0.239292
v -1.237069 -0.567078 -0.401949
v -0.860158 -0.963388 -0.920724
v -0.627213 -1.604630 -0.600104
v -0.860158 -1.604630 0.116826
v 0.609857 0.340207 -0.198155
v -0.000000 0.340207 -0.641242
v -0.609857 0.340207 -0.198155
v -0.376913 0.340207 0.518776
v 0.376912 0.340207 0.518776
v -0.609857 -0.375359 0.959653
v -0.000001 -0.771668 1.157807
v 0.609856 -0.375359 0.959652
v 0.376912 0.265883 0.639033
v -0.376913 0.265883 0.639033
v 0.724228 -0.375359 0.876557
v 1.101140 -0.771668 0.357782
v 1.101140 -0.375359 -0.283460
v 0.724229 0.265883 -0.160993
v 0.491284 0.265883 0.555937
v 1.057454 -0.375359 -0.417912
v 0.680541 -0.771668 -0.936687
v 0.070685 -0.375359 -1.134841
v 0.070686 0.265883 -0.738532
v 0.680543 0.265883 -0.295445
v -0.070687 -0.375359 -1.134841
v -0.680544 -0.771668 -0.936687
v -1.057455 -0.375359 -0.417912
v -0.680543 0.265883 -0.295445
v -0.070686 0.265883 -0.738532
v -1.101141 -0.375359 -0.283460
v -1.101142 -0.771668 0.357781
v -0.724229 -0.375359 0.876557
v -0.491284 0.265883 0.555937
v -0.724229 0.265883 -0.160993
v 0.609856 -1.607491 0.198154
v -0.000001 -1.607491 0.641241
v -0.609858 -1.607491 0.198154
v -0.376913 -1.607491 -0.518776
v 0.376912 -1.607491 -0.518776
v -0.609858 -0.891926 -0.959654
v -0.000001 -0.495617 -1.157808
v 0.609856 -0.891926 -0.959655
v 0.376912 -1.533168 -0.639034
v -0.376913 -1.533168 -0.639034
v 0.724227 -0.891926 -0.876559
v 1.101140 -0.495617 -0.357783
v 1.101140 -0.891926 0.283459
v 0.724228 -1.533168 0.160992
v 0.491283 -1.533168 -0.555938
v 1.057454 -0.891926 0.417911
v 0.680542 -0.495617 0.936685
v 0.070685 -0.891926 1.134840
v 0.070685 -1.533168 0.738531
v 0.680542 -1.533168 0.295444
v -0.070687 -0.891926 1.134840
v -0.680543 -0.495617 0.936686
v -1.057456 -0.891926 0.417910
v -0.680544 -1.533168 0.295444
v -0.070686 -1.533168 0.738531
v -1.101142 -0.891926 0.283458
v -1.101141 -0.495617 -0.357783
v -0.724230 -0.891926 -0.876558
v -0.491285 -1.533168 -0.555938
v -0.724230 -1.533168 0.160992
vn -0.0000 1.0000 -0.0000
vn -0.0000 0.4472 0.8944
vn 0.8507 0.4472 0.2764
vn 0.5257 0.4472 -0.7236
vn -0.5257 0.4472 -0.7236
vn -0.8507 0.4472 0.2764
vn -0.0000 -1.0000 -0.0000
vn -0.0000 -0.4472 -0.8944
vn 0.8507 -0.4472 -0.2764
vn 0.5257 -0.4472 0.7236
vn -0.5257 -0.4472 0.7236
vn -0.8507 -0.4472 -0.2764
vn -0.5878 -0.0000 0.8090
vn 0.5878 -0.0000 0.8090
vn 0.9511 -0.0000 -0.3090
vn -0.0000 -0.0000 -1.0000
vn -0.9511 -0.0000 -0.3090
vn 0.5878 0.7236 -0.3618
vn -0.5878 0.7236 -0.3618
vn -0.9511 -0.2764 0.1382
vn -0.0000 -0.8944 0.4472
vn 0.9511 -0.2764 0.1382
vn -0.1625 0.7236 -0.6708
vn -0.5257 0.7236 0.4472
vn -0.1625 -0.2764 0.9472
vn 0.4253 -0.8944 0.1382
vn 0.4253 -0.2764 -0.8618
vn -0.6882 0.7236 -0.0528
vn 0.2629 0.7236 0.6382
vn 0.8507 -0.2764 0.4472
vn 0.2629 -0.8944 -0.3618
vn -0.6882 -0.2764 -0.6708
vn -0.2629 0.7236 0.6382
vn 0.6882 0.7236 -0.0528
vn 0.6882 -0.2764 -0.6708
vn -0.2629 -0.8944 -0.3618
vn -0.8507 -0.2764 0.4472
vn 0.5257 0.7236 0.4472
vn 0.1625 0.7236 -0.6708
vn -0.4253 -0.2764 -0.8618
vn -0.4253 -0.8944 0.1382
vn 0.1625 -0.2764 0.9472
vn -0.5878 -0.0000 -0.8090
vn 0.5878 -0.0000 -0.8090
vn 0.9511 -0.0000 0.3090
vn -0.0000 -0.0000 1.0000
vn -0.9511 -0.0000 0.3090
vn 0.5878 -0.7236 0.3618
vn -0.5878 -0.7236 0.3618
vn -0.9511 0.2764 -0.1382
vn -0.0000 0.8944 -0.4472
vn 0.9511 0.2764 -0.1382
vn -0.1625 -0.7236 0.6708
vn -0.5257 -0.7236 -0.4472
vn -0.1625 0.2764 -0.9472
vn 0.4253 0.8944 -0.1382
vn 0.4253 0.2764 0.8618
vn -0.6882 -0.7236 0.0528
vn 0.2629 -0.7236 -0.6382
vn 0.8507 0.2764 -0.4472
vn 0.2629 0.8944 0.3618
vn -0.6882 0.2764 0.6708
vn -0.2629 -0.7236 -0.6382
vn 0.6882 -0.7236 0.0528
vn 0.6882 0.2764 0.6708
vn -0.2629 0.8944 0.3618
vn -0.8507 0.2764 -0.4472
vn 0.5257 -0.7236 -0.4472
vn 0.1625 -0.7236 0.6708
vn -0.4253 0.2764 0.8618
vn -0.4253 0.8944 -0.1382
vn 0.1625 0.2764 -0.9472
vt 0.400000 0.666667
vt 0.600000 0.666667
vt 0.600000 0.666667
vt 0.428655 0.666667
vt 0.800000 0.666667
vt 0.771345 0.666667
vt 1.000000 0.666667
vt 0.858547 0.666667
vt 0.200000 0.666667
vt 0.341453 0.666667
vt 0.600000 0.666667
vt 0.428655 0.666667
vt 0.771345 0.666667
vt 0.858547 0.666667
vt 0.341453 0.666667
vt 0.600000 0.666667
vt 0.428655 0.666667
vt 0.771345 0.666667
vt 0.858547 0.666667
vt 0.341453 0.666667
vt 0.600000 0.666667
vt 0.428655 0.666667
vt 0.771345 0.666667
vt 0.858547 0.666667
vt 0.341453 0.666667
vt 0.600000 0.666667
vt 0.428655 0.666667
vt 0.341453 0.666667
vt 0.771345 0.666667
vt 0.858547 0.666667
vt 0.341453 0.666667
vt 0.428655 0.666667
vt 0.341453 0.666667
vt 0.428655 0.666667
vt 0.600000 0.666667
vt 0.428655 0.666667
vt 0.771345 0.666667
vt 0.600000 0.666667
vt 0.428655 0.666667
vt 0.341453 0.666667
s 0
f 1/1/1 6/2/1 22/3/1 21/4/1
f 6/2/1 7/5/1 23/6/1 22/3/1
f 7/5/1 3/7/1 24/8/1 23/6/1
f 3/7/1 2/9/1 25/10/1 24/8/1
f 2/9/1 1/1/1 21/4/1 25/10/1
f 4/1/2 18/2/2 27/11/2 26/12/2
f 18/2/2 17/5/2 28/13/2 27/11/2
f 17/5/2 2/7/2 29/14/2 28/13/2
f 2/7/2 3/9/2 30/15/2 29/14/2
f 3/9/2 4/1/2 26/12/2 30/15/2
f 17/1/3 5/2/3 32/16/3 31/17/3
f 5/2/3 14/5/3 33/18/3 32/16/3
f 14/5/3 1/7/3 34/19/3 33/18/3
f 1/7/3 2/9/3 35/20/3 34/19/3
f 2/9/3 17/1/3 31/17/3 35/20/3
f 14/1/4 16/2/4 37/21/4 36/22/4
f 16/2/4 12/5/4 38/23/4 37/21/4
f 12/5/4 6/7/4 39/24/4 38/23/4
f 6/7/4 1/9/4 40/25/4 39/24/4
f 1/9/4 14/1/4 36/22/4 40/25/4
f 12/1/5 13/2/5 42/26/5 41/27/5
f 13/2/5 8/5/5 43/23/5 42/26/5
f 8/5/5 7/7/5 44/19/5 43/23/5
f 7/7/5 6/9/5 45/28/5 44/19/5
f 6/9/5 12/1/5 41/27/5 45/28/5
f 8/1/6 19/2/6 47/2/6 46/17/6
f 19/2/6 4/5/6 48/29/6 47/2/6
f 4/5/6 3/7/6 49/30/6 48/29/6
f 3/7/6 7/9/6 50/31/6 49/30/6
f 7/9/6 8/1/6 46/17/6 50/31/6
f 9/1/7 20/2/7 52/16/7 51/27/7
f 20/2/7 11/5/7 53/6/7 52/16/7
f 11/5/7 10/7/7 54/30/7 53/6/7
f 10/7/7 15/9/7 55/31/7 54/30/7
f 15/9/7 9/1/7 51/27/7 55/31/7
f 13/1/8 12/2/8 57/2/8 56/32/8
f 12/2/8 16/5/8 58/23/8 57/2/8
f 16/5/8 15/7/8 59/24/8 58/23/8
f 15/7/8 10/9/8 60/33/8 59/24/8
f 10/9/8 13/1/8 56/32/8 60/33/8
f 16/1/9 14/2/9 62/3/9 61/34/9
f 14/2/9 5/5/9 63/6/9 62/3/9
f 5/5/9 9/7/9 64/8/9 63/6/9
f 9/7/9 15/9/9 65/15/9 64/8/9
f 15/9/9 16/1/9 61/34/9 65/15/9
f 5/1/10 17/2/10 67/35/10 66/36/10
f 17/2/10 18/5/10 68/37/10 67/35/10
f 18/5/10 20/7/10 69/30/10 68/37/10
f 20/7/10 9/9/10 70/25/10 69/30/10
f 9/9/10 5/1/10 66/36/10 70/25/10
f 18/1/11 4/2/11 72/38/11 71/39/11
f 4/2/11 19/5/11 73/13/11 72/38/11
f 19/5/11 11/7/11 74/19/11 73/13/11
f 11/7/11 20/9/11 75/40/11 74/19/11
f 20/9/11 18/1/11 71/39/11 75/40/11
f 19/1/12 8/2/12 77/2/12 76/17/12
f 8/2/12 13/5/12 78/23/12 77/2/12
f 13/5/12 10/7/12 79/24/12 78/23/12
f 10/7/12 11/9/12 80/15/12 79/24/12
f 11/9/12 19/1/12 76/17/12 80/15/12
f 81/4/1 82/3/1 83/6/1 84/8/1 85/10/1
f 22/3/13 82/3/13 81/4/13 21/4/13
f 23/6/14 83/6/14 82/3/14 22/3/14
f 24/8/15 84/8/15 83/6/15 23/6/15
f 25/10/16 85/10/16 84/8/16 24/8/16
f 21/4/17 81/4/17 85/10/17 25/10/17
f 86/12/2 87/11/2 88/13/2 89/14/2 90/15/2
f 27/11/18 87/11/18 86/12/18 26/12/18
f 28/13/19 88/13/19 87/11/19 27/11/19
f 29/14/20 89/14/20 88/13/20 28/13/20
f 30/15/21 90/15/21 89/14/21 29/14/21
f 26/12/22 86/12/22 90/15/22 30/15/22
f 91/17/3 92/16/3 93/18/3 94/19/3 95/20/3
f 32/16/23 92/16/23 91/17/23 31/17/23
f 33/18/24 93/18/24 92/16/24 32/16/24
f 34/19/25 94/19/25 93/18/25 33/18/25
f 35/20/26 95/20/26 94/19/26 34/19/26
f 31/17/27 91/17/27 95/20/27 35/20/27
f 96/22/4 97/21/4 98/23/4 99/24/4 100/25/4
f 37/21/28 97/21/28 96/22/28 36/22/28
f 38/23/29 98/23/29 97/21/29 37/21/29
f 39/24/30 99/24/30 98/23/30 38/23/30
f 40/25/31 100/25/31 99/24/31 39/24/31
f 36/22/32 96/22/32 100/25/32 40/25/32
f 101/27/5 102/26/5 103/23/5 104/19/5 105/28/5
f 42/26/33 102/26/33 101/27/33 41/27/33
f 43/23/34 103/23/34 102/26/34 42/26/34
f 44/19/35 104/19/35 103/23/35 43/23/35
f 45/28/36 105/28/36 104/19/36 44/19/36
f 41/27/37 101/27/37 105/28/37 45/28/37
f 106/17/6 107/2/6 108/29/6 109/30/6 110/31/6
f 47/2/38 107/2/38 106/17/38 46/17/38
f 48/29/39 108/29/39 107/2/39 47/2/39
f 49/30/40 109/30/40 108/29/40 48/29/40
f 50/31/41 110/31/41 109/30/41 49/30/41
f 46/17/42 106/17/42 110/31/42 50/31/42
f 111/27/7 112/16/7 113/6/7 114/30/7 115/31/7
f 52/16/43 112/16/43 111/27/43 51/27/43
f 53/6/44 113/6/44 112/16/44 52/16/44
f 54/30/45 114/30/45 113/6/45 53/6/45
f 55/31/46 115/31/46 114/30/46 54/30/46
f 51/27/47 111/27/47 115/31/47 55/31/47
f 116/32/8 117/2/8 118/23/8 119/24/8 120/33/8
f 57/2/48 117/2/48 116/32/48 56/32/48
f 58/23/49 118/23/49 117/2/49 57/2/49
f 59/24/50 119/24/50 118/23/50 58/23/50
f 60/33/51 120/33/51 119/24/51 59/24/51
f 56/32/52 116/32/52 120/33/52 60/33/52
f 121/34/9 122/3/9 123/6/9 124/8/9 125/15/9
f 62/3/53 122/3/53 121/34/53 61/34/53
f 63/6/54 123/6/54 122/3/54 62/3/54
f 64/8/55 124/8/55 123/6/55 63/6/55
f 65/15/56 125/15/56 124/8/56 64/8/56
f 61/34/57 121/34/57 125/15/57 65/15/57
f 126/36/10 127/35/10 128/37/10 129/30/10 130/25/10
f 67/35/58 127/35/58 126/36/58 66/36/58
f 68/37/59 128/37/59 127/35/59 67/35/59
f 69/30/60 129/30/60 128/37/60 68/37/60
f 70/25/61 130/25/61 129/30/61 69/30/61
f 66/36/62 126/36/62 130/25/62 70/25/62
f 131/39/11 132/38/11 133/13/11 134/19/11 135/40/11
f 72/38/63 132/38/63 131/39/63 71/39/63
f 73/13/64 133/13/64 132/38/64 72/38/64
f 74/19/65 134/19/65 133/13/65 73/13/65
f 75/40/66 135/40/66 134/19/66 74/19/66
f 71/39/67 131/39/67 135/40/67 75/40/67
f 136/17/12 137/2/12 138/23/12 139/24/12 140/15/12
f 77/2/68 137/2/68 136/17/68 76/17/68
f 78/23/69 138/23/69 137/2/69 77/2/69
f 79/24/70 139/24/70 138/23/70 78/23/70
f 80/15/71 140/15/71 139/24/71 79/24/71
f 76/17/72 136/17/72 140/15/72 80/15/72
