# Blender 4.5.3 LTS
# www.blender.org
mtllib BaseD20.mtl
o Icosphere
v 0.000000 -1.500000 0.000000
v 1.085400 -0.670823 0.788580
v -0.414577 -0.670823 1.275960
v -1.341637 -0.670823 0.000000
v -0.414577 -0.670823 -1.275960
v 1.085400 -0.670823 -0.788580
v 0.414577 0.670823 1.275960
v -1.085400 0.670823 0.788580
v -1.085400 0.670823 -0.788580
v 0.414577 0.670823 -1.275960
v 1.341637 0.670823 0.000000
v 0.000000 1.500000 0.000000
v 0.047770 -1.381906 0.147019
v 0.901292 -0.729869 0.767131
v -0.278240 -0.729869 1.150391
v 1.008108 -0.729869 0.620112
v 0.154586 -1.381906 0.000000
v 1.008108 -0.729869 -0.620112
v -0.125061 -1.381907 0.090862
v -0.451071 -0.729869 1.094236
v -1.180081 -0.729869 0.090862
v -0.125061 -1.381907 -0.090862
v -1.180081 -0.729869 -0.090862
v -0.451071 -0.729869 -1.094236
v 0.047770 -1.381907 -0.147019
v -0.278240 -0.729869 -1.150391
v 0.901292 -0.729869 -0.767131
v 1.103647 -0.575284 0.620113
v 1.103647 -0.575284 -0.620113
v 1.305143 0.479742 0.000000
v -0.248719 -0.575284 1.241253
v 0.930815 -0.575284 0.857993
v 0.403302 0.479743 1.241253
v -1.257374 -0.575284 0.147017
v -0.528364 -0.575284 1.150391
v -1.055877 0.479744 0.767131
v -0.528364 -0.575284 -1.150391
v -1.257374 -0.575284 -0.147017
v -1.055877 0.479744 -0.767131
v 0.930815 -0.575284 -0.857993
v -0.248719 -0.575284 -1.241253
v 0.403302 0.479743 -1.241253
v 1.055877 -0.479744 0.767131
v 1.257374 0.575284 0.147017
v 0.528364 0.575284 1.150391
v -0.403302 -0.479743 1.241253
v 0.248719 0.575284 1.241253
v -0.930815 0.575284 0.857993
v -1.305143 -0.479742 0.000000
v -1.103647 0.575284 0.620113
v -1.103647 0.575284 -0.620113
v -0.403302 -0.479743 -1.241253
v -0.930815 0.575284 -0.857993
v 0.248719 0.575284 -1.241253
v 1.055877 -0.479744 -0.767131
v 0.528364 0.575284 -1.150391
v 1.257374 0.575284 -0.147017
v 0.451071 0.729869 1.094236
v 1.180081 0.729869 0.090862
v 0.125061 1.381907 0.090862
v -0.901292 0.729869 0.767131
v 0.278240 0.729869 1.150391
v -0.047770 1.381906 0.147019
v -1.008108 0.729869 -0.620112
v -1.008108 0.729869 0.620112
v -0.154586 1.381906 0.000000
v 0.278240 0.729869 -1.150391
v -0.901292 0.729869 -0.767131
v -0.047770 1.381907 -0.147019
v 1.180081 0.729869 -0.090862
v 0.451071 0.729869 -1.094236
v 0.125061 1.381907 -0.090862
v 0.029010 -1.302441 0.089283
v 0.882533 -0.650404 0.709396
v -0.296999 -0.650404 1.092655
v 0.947401 -0.650404 0.620112
v 0.093880 -1.302441 0.000000
v 0.947401 -0.650404 -0.620112
v -0.075949 -1.302442 0.055180
v -0.401959 -0.650404 1.058553
v -1.130969 -0.650404 0.055180
v -0.075949 -1.302442 -0.055180
v -1.130969 -0.650404 -0.055180
v -0.401959 -0.650404 -1.058553
v 0.029010 -1.302441 -0.089283
v -0.296999 -0.650404 -1.092655
v 0.882532 -0.650404 -0.709396
v 1.005422 -0.556524 0.620113
v 1.005422 -0.556524 -0.620113
v 1.206919 0.498501 -0.000000
v -0.279072 -0.556525 1.147836
v 0.900462 -0.556525 0.764576
v 0.372948 0.498502 1.147836
v -1.177909 -0.556525 0.089281
v -0.448899 -0.556525 1.092656
v -0.976412 0.498503 0.709395
v -0.448899 -0.556525 -1.092656
v -1.177909 -0.556525 -0.089281
v -0.976412 0.498503 -0.709395
v 0.900462 -0.556525 -0.764576
v -0.279072 -0.556525 -1.147836
v 0.372948 0.498502 -1.147836
v 0.976412 -0.498503 0.709395
v 1.177909 0.556525 0.089281
v 0.448899 0.556525 1.092656
v -0.372948 -0.498502 1.147836
v 0.279072 0.556525 1.147836
v -0.900462 0.556525 0.764576
v -1.206919 -0.498501 -0.000000
v -1.005422 0.556524 0.620113
v -1.005422 0.556524 -0.620113
v -0.372948 -0.498502 -1.147836
v -0.900462 0.556525 -0.764576
v 0.279072 0.556525 -1.147836
v 0.976412 -0.498503 -0.709395
v 0.448899 0.556525 -1.092656
v 1.177909 0.556525 -0.089281
v 0.401959 0.650404 1.058553
v 1.130969 0.650404 0.055180
v 0.075949 1.302442 0.055180
v -0.882533 0.650404 0.709396
v 0.296999 0.650404 1.092655
v -0.029010 1.302441 0.089283
v -0.947401 0.650404 -0.620112
v -0.947401 0.650404 0.620112
v -0.093880 1.302441 0.000000
v 0.296999 0.650404 -1.092655
v -0.882532 0.650404 -0.709396
v -0.029010 1.302441 -0.089283
v 1.130969 0.650404 -0.055180
v 0.401959 0.650404 -1.058553
v 0.075949 1.302442 -0.055180
vn 0.1876 -0.7947 0.5774
vn 0.6071 -0.7947 -0.0000
vn -0.4911 -0.7947 0.3568
vn -0.4911 -0.7947 -0.3568
vn 0.1876 -0.7947 -0.5774
vn 0.9822 -0.1876 -0.0000
vn 0.3035 -0.1876 0.9342
vn -0.7946 -0.1876 0.5774
vn -0.7946 -0.1876 -0.5774
vn 0.3035 -0.1876 -0.9342
vn 0.7946 0.1876 0.5774
vn -0.3035 0.1876 0.9342
vn -0.9822 0.1876 -0.0000
vn -0.3035 0.1876 -0.9342
vn 0.7946 0.1876 -0.5774
vn 0.4911 0.7947 0.3568
vn -0.1876 0.7947 0.5774
vn -0.6071 0.7947 -0.0000
vn -0.1876 0.7947 -0.5774
vn 0.4911 0.7947 -0.3568
vn -0.7009 0.3035 0.6455
vn -0.2456 -0.6071 -0.7558
vn 0.9464 0.3035 0.1103
vn 0.3973 0.3035 -0.8660
vn 0.3973 0.3035 0.8660
vn -0.7947 -0.6071 -0.0000
vn -0.8305 0.3035 -0.4671
vn 0.6429 -0.6071 -0.4671
vn 0.1876 0.3035 0.9342
vn 0.1876 0.3035 -0.9342
vn 0.6429 -0.6071 0.4671
vn -0.8305 0.3035 0.4671
vn 0.9464 0.3035 -0.1103
vn -0.2456 -0.6071 0.7558
vn -0.7009 0.3035 -0.6455
vn 0.1876 0.9822 -0.0000
vn -0.0938 -0.4911 0.8660
vn -0.0938 -0.4911 -0.8660
vn 0.0580 0.9822 0.1784
vn -0.8526 -0.4911 0.1784
vn 0.7947 -0.4911 -0.3568
vn -0.1518 0.9822 0.1103
vn -0.4332 -0.4911 -0.7558
vn 0.5849 -0.4911 0.6455
vn -0.1518 0.9822 -0.1103
vn 0.5849 -0.4911 -0.6455
vn -0.4332 -0.4911 0.7558
vn 0.0580 0.9822 -0.1784
vn 0.7947 -0.4911 0.3568
vn -0.8526 -0.4911 -0.1784
vn -0.5849 0.4911 0.6455
vn 0.1518 -0.9822 0.1103
vn 0.4332 0.4911 -0.7558
vn -0.7947 0.4911 -0.3568
vn -0.0580 -0.9822 0.1784
vn 0.8526 0.4911 0.1784
vn 0.0938 0.4911 -0.8660
vn -0.1876 -0.9822 -0.0000
vn 0.0938 0.4911 0.8660
vn 0.8526 0.4911 -0.1784
vn -0.0580 -0.9822 -0.1784
vn -0.7947 0.4911 0.3568
vn 0.4332 0.4911 0.7558
vn 0.1518 -0.9822 -0.1103
vn -0.5849 0.4911 -0.6455
vn -0.6429 0.6071 -0.4671
vn -0.1876 -0.3035 0.9342
vn 0.8305 -0.3035 -0.4671
vn 0.2456 0.6071 -0.7558
vn -0.9464 -0.3035 0.1103
vn 0.7009 -0.3035 0.6455
vn 0.7947 0.6071 -0.0000
vn -0.3973 -0.3035 -0.8660
vn -0.3973 -0.3035 0.8660
vn 0.2456 0.6071 0.7558
vn 0.7009 -0.3035 -0.6455
vn -0.9464 -0.3035 -0.1103
vn -0.6429 0.6071 0.4671
vn 0.8305 -0.3035 0.4671
vn -0.1876 -0.3035 -0.9342
vt 0.181819 0.000000
vt 0.272728 0.157461
vt 0.253307 0.146248
vt 0.181819 0.022426
vt 0.090910 0.157461
vt 0.110331 0.146248
vt 0.363637 0.000000
vt 0.363637 0.022426
vt 0.292149 0.146248
vt 0.454546 0.157461
vt 0.435125 0.146248
vt 0.909091 0.000000
vt 1.000000 0.157461
vt 0.980579 0.146248
vt 0.909091 0.022426
vt 0.818182 0.157461
vt 0.837603 0.146248
vt 0.727273 0.000000
vt 0.798761 0.146248
vt 0.727273 0.022426
vt 0.636364 0.157461
vt 0.655785 0.146248
vt 0.545455 0.000000
vt 0.616943 0.146248
vt 0.545455 0.022426
vt 0.473967 0.146248
vt 0.435125 0.168674
vt 0.292149 0.168674
vt 0.363637 0.314921
vt 0.363637 0.292495
vt 0.253307 0.168674
vt 0.110331 0.168674
vt 0.181819 0.314921
vt 0.181819 0.292495
vt 0.980579 0.168674
vt 0.837603 0.168674
vt 0.909091 0.314921
vt 0.909091 0.292495
vt 0.798761 0.168674
vt 0.655785 0.168674
vt 0.727273 0.314921
vt 0.727273 0.292495
vt 0.616943 0.168674
vt 0.473967 0.168674
vt 0.545455 0.314921
vt 0.545455 0.292495
vt 0.344216 0.303708
vt 0.272728 0.179887
vt 0.201240 0.303708
vt 0.162398 0.303708
vt 0.090910 0.179887
vt 0.000000 0.314921
vt 0.019421 0.303708
vt 0.889670 0.303708
vt 0.818182 0.179887
vt 0.746694 0.303708
vt 0.707852 0.303708
vt 0.636364 0.179887
vt 0.564876 0.303708
vt 0.526034 0.303708
vt 0.454546 0.179887
vt 0.383058 0.303708
vt 0.344216 0.326134
vt 0.201240 0.326134
vt 0.272728 0.472382
vt 0.272728 0.449956
vt 0.162398 0.326134
vt 0.019421 0.326134
vt 0.090910 0.472382
vt 0.090910 0.449956
vt 0.889670 0.326134
vt 0.746694 0.326134
vt 0.818182 0.472382
vt 0.818182 0.449956
vt 0.707852 0.326134
vt 0.564876 0.326134
vt 0.636364 0.472382
vt 0.636364 0.449956
vt 0.526034 0.326134
vt 0.383058 0.326134
vt 0.454546 0.472382
vt 0.454546 0.449956
s 0
usemtl Material.001
f 1/1/1 2/2/1 14/3/1 13/4/1
f 2/2/1 3/5/1 15/6/1 14/3/1
f 3/5/1 1/1/1 13/4/1 15/6/1
f 2/2/2 1/7/2 17/8/2 16/9/2
f 1/7/2 6/10/2 18/11/2 17/8/2
f 6/10/2 2/2/2 16/9/2 18/11/2
f 1/12/3 3/13/3 20/14/3 19/15/3
f 3/13/3 4/16/3 21/17/3 20/14/3
f 4/16/3 1/12/3 19/15/3 21/17/3
f 1/18/4 4/16/4 23/19/4 22/20/4
f 4/16/4 5/21/4 24/22/4 23/19/4
f 5/21/4 1/18/4 22/20/4 24/22/4
f 1/23/5 5/21/5 26/24/5 25/25/5
f 5/21/5 6/10/5 27/26/5 26/24/5
f 6/10/5 1/23/5 25/25/5 27/26/5
f 2/2/6 6/10/6 29/27/6 28/28/6
f 6/10/6 11/29/6 30/30/6 29/27/6
f 11/29/6 2/2/6 28/28/6 30/30/6
f 3/5/7 2/2/7 32/31/7 31/32/7
f 2/2/7 7/33/7 33/34/7 32/31/7
f 7/33/7 3/5/7 31/32/7 33/34/7
f 4/16/8 3/13/8 35/35/8 34/36/8
f 3/13/8 8/37/8 36/38/8 35/35/8
f 8/37/8 4/16/8 34/36/8 36/38/8
f 5/21/9 4/16/9 38/39/9 37/40/9
f 4/16/9 9/41/9 39/42/9 38/39/9
f 9/41/9 5/21/9 37/40/9 39/42/9
f 6/10/10 5/21/10 41/43/10 40/44/10
f 5/21/10 10/45/10 42/46/10 41/43/10
f 10/45/10 6/10/10 40/44/10 42/46/10
f 2/2/11 11/29/11 44/47/11 43/48/11
f 11/29/11 7/33/11 45/49/11 44/47/11
f 7/33/11 2/2/11 43/48/11 45/49/11
f 3/5/12 7/33/12 47/50/12 46/51/12
f 7/33/12 8/52/12 48/53/12 47/50/12
f 8/52/12 3/5/12 46/51/12 48/53/12
f 4/16/13 8/37/13 50/54/13 49/55/13
f 8/37/13 9/41/13 51/56/13 50/54/13
f 9/41/13 4/16/13 49/55/13 51/56/13
f 5/21/14 9/41/14 53/57/14 52/58/14
f 9/41/14 10/45/14 54/59/14 53/57/14
f 10/45/14 5/21/14 52/58/14 54/59/14
f 6/10/15 10/45/15 56/60/15 55/61/15
f 10/45/15 11/29/15 57/62/15 56/60/15
f 11/29/15 6/10/15 55/61/15 57/62/15
f 7/33/16 11/29/16 59/63/16 58/64/16
f 11/29/16 12/65/16 60/66/16 59/63/16
f 12/65/16 7/33/16 58/64/16 60/66/16
f 8/52/17 7/33/17 62/67/17 61/68/17
f 7/33/17 12/69/17 63/70/17 62/67/17
f 12/69/17 8/52/17 61/68/17 63/70/17
f 9/41/18 8/37/18 65/71/18 64/72/18
f 8/37/18 12/73/18 66/74/18 65/71/18
f 12/73/18 9/41/18 64/72/18 66/74/18
f 10/45/19 9/41/19 68/75/19 67/76/19
f 9/41/19 12/77/19 69/78/19 68/75/19
f 12/77/19 10/45/19 67/76/19 69/78/19
f 11/29/20 10/45/20 71/79/20 70/80/20
f 10/45/20 12/81/20 72/82/20 71/79/20
f 12/81/20 11/29/20 70/80/20 72/82/20
f 73/4/1 74/3/1 75/6/1
f 14/3/21 74/3/21 73/4/21 13/4/21
f 15/6/22 75/6/22 74/3/22 14/3/22
f 13/4/23 73/4/23 75/6/23 15/6/23
f 76/9/2 77/8/2 78/11/2
f 17/8/24 77/8/24 76/9/24 16/9/24
f 18/11/25 78/11/25 77/8/25 17/8/25
f 16/9/26 76/9/26 78/11/26 18/11/26
f 79/15/3 80/14/3 81/17/3
f 20/14/27 80/14/27 79/15/27 19/15/27
f 21/17/28 81/17/28 80/14/28 20/14/28
f 19/15/29 79/15/29 81/17/29 21/17/29
f 82/20/4 83/19/4 84/22/4
f 23/19/30 83/19/30 82/20/30 22/20/30
f 24/22/31 84/22/31 83/19/31 23/19/31
f 22/20/32 82/20/32 84/22/32 24/22/32
f 85/25/5 86/24/5 87/26/5
f 26/24/33 86/24/33 85/25/33 25/25/33
f 27/26/34 87/26/34 86/24/34 26/24/34
f 25/25/35 85/25/35 87/26/35 27/26/35
f 88/28/6 89/27/6 90/30/6
f 29/27/36 89/27/36 88/28/36 28/28/36
f 30/30/37 90/30/37 89/27/37 29/27/37
f 28/28/38 88/28/38 90/30/38 30/30/38
f 91/32/7 92/31/7 93/34/7
f 32/31/39 92/31/39 91/32/39 31/32/39
f 33/34/40 93/34/40 92/31/40 32/31/40
f 31/32/41 91/32/41 93/34/41 33/34/41
f 94/36/8 95/35/8 96/38/8
f 35/35/42 95/35/42 94/36/42 34/36/42
f 36/38/43 96/38/43 95/35/43 35/35/43
f 34/36/44 94/36/44 96/38/44 36/38/44
f 97/40/9 98/39/9 99/42/9
f 38/39/45 98/39/45 97/40/45 37/40/45
f 39/42/46 99/42/46 98/39/46 38/39/46
f 37/40/47 97/40/47 99/42/47 39/42/47
f 100/44/10 101/43/10 102/46/10
f 41/43/48 101/43/48 100/44/48 40/44/48
f 42/46/49 102/46/49 101/43/49 41/43/49
f 40/44/50 100/44/50 102/46/50 42/46/50
f 103/48/11 104/47/11 105/49/11
f 44/47/51 104/47/51 103/48/51 43/48/51
f 45/49/52 105/49/52 104/47/52 44/47/52
f 43/48/53 103/48/53 105/49/53 45/49/53
f 106/51/12 107/50/12 108/53/12
f 47/50/54 107/50/54 106/51/54 46/51/54
f 48/53/55 108/53/55 107/50/55 47/50/55
f 46/51/56 106/51/56 108/53/56 48/53/56
f 109/55/13 110/54/13 111/56/13
f 50/54/57 110/54/57 109/55/57 49/55/57
f 51/56/58 111/56/58 110/54/58 50/54/58
f 49/55/59 109/55/59 111/56/59 51/56/59
f 112/58/14 113/57/14 114/59/14
f 53/57/60 113/57/60 112/58/60 52/58/60
f 54/59/61 114/59/61 113/57/61 53/57/61
f 52/58/62 112/58/62 114/59/62 54/59/62
f 115/61/15 116/60/15 117/62/15
f 56/60/63 116/60/63 115/61/63 55/61/63
f 57/62/64 117/62/64 116/60/64 56/60/64
f 55/61/65 115/61/65 117/62/65 57/62/65
f 118/64/16 119/63/16 120/66/16
f 59/63/66 119/63/66 118/64/66 58/64/66
f 60/66/67 120/66/67 119/63/67 59/63/67
f 58/64/68 118/64/68 120/66/68 60/66/68
f 121/68/17 122/67/17 123/70/17
f 62/67/69 122/67/69 121/68/69 61/68/69
f 63/70/70 123/70/70 122/67/70 62/67/70
f 61/68/71 121/68/71 123/70/71 63/70/71
f 124/72/18 125/71/18 126/74/18
f 65/71/72 125/71/72 124/72/72 64/72/72
f 66/74/73 126/74/73 125/71/73 65/71/73
f 64/72/74 124/72/74 126/74/74 66/74/74
f 127/76/19 128/75/19 129/78/19
f 68/75/75 128/75/75 127/76/75 67/76/75
f 69/78/76 129/78/76 128/75/76 68/75/76
f 67/76/77 127/76/77 129/78/77 69/78/77
f 130/80/20 131/79/20 132/82/20
f 71/79/78 131/79/78 130/80/78 70/80/78
f 72/82/79 132/82/79 131/79/79 71/79/79
f 70/80/80 130/80/80 132/82/80 72/82/80
