# Blender 4.5.3 LTS
# www.blender.org
mtllib BaseD4.mtl
o D4Model
v -1.733333 -0.863351 0.000000
v 0.866667 -0.863351 1.500000
v 0.866667 -0.863351 -1.500000
v 0.000000 1.736649 0.000000
v 0.826676 -0.743379 1.286621
v 0.826676 -0.743379 -1.286621
v 0.083295 1.486765 0.000000
v -1.528446 -0.743372 0.072058
v -0.041619 1.486868 0.072058
v 0.701794 -0.743372 1.358735
v 0.740205 -0.863351 1.281043
v 0.740205 -0.863351 -1.281043
v -1.480269 -0.863351 0.000000
v -1.528446 -0.743372 -0.072058
v 0.701794 -0.743372 -1.358735
v -0.041619 1.486868 -0.072058
v 0.738711 -0.772700 1.286621
v 0.738711 -0.772700 -1.286621
v -0.004670 1.457443 0.000000
v -1.490518 -0.768657 0.006316
v -0.003691 1.461583 0.006316
v 0.739722 -0.768657 1.292993
v 0.740205 -0.783351 1.281043
v 0.740205 -0.783351 -1.281043
v -1.480269 -0.783351 0.000000
v -1.490518 -0.768657 -0.006316
v 0.739722 -0.768657 -1.292993
v -0.003691 1.461583 -0.006316
vn 0.9487 0.3162 -0.0000
vn 0.4741 -0.3161 -0.8218
vn -0.0000 1.0000 -0.0000
vn 0.4741 -0.3161 0.8218
vn -0.3162 0.9487 -0.0000
vn 0.1518 -0.4555 0.8772
vn 0.1518 -0.4555 -0.8772
vn -0.6838 0.4558 -0.5698
vn 0.8356 0.4556 0.3069
vn -0.1579 -0.9487 0.2738
vn 1.0000 -0.0000 -0.0000
vn -0.4997 -0.0000 -0.8662
vn -0.4997 -0.0000 0.8662
vn -0.1579 -0.9487 -0.2738
vn 0.8356 0.4556 -0.3069
vn -0.6838 0.4558 0.5698
vt 0.000000 0.000000
vt 0.500000 0.000000
vt 0.464437 0.011536
vt 0.035563 0.011536
vt 0.250000 0.250000
vt 0.250000 0.225973
vt 0.500000 0.500000
vt 1.000000 0.000000
vt 0.975985 0.048035
vt 0.547092 0.476927
vt 1.000000 0.500000
vt 0.975985 0.476927
vt 1.000000 1.000000
vt 0.975680 0.951347
vt 0.975680 0.524333
vt 0.548666 0.524333
vt 0.523073 0.024015
vt 0.523073 0.452908
vt 0.951965 0.024015
s 0
f 2/1/1 3/2/1 6/3/1 5/4/1
f 3/2/1 4/5/1 7/6/1 6/3/1
f 4/5/1 2/1/1 5/4/1 7/6/1
f 1/7/2 4/8/2 9/9/2 8/10/2
f 4/8/2 2/11/2 10/12/2 9/9/2
f 2/11/2 1/7/2 8/10/2 10/12/2
f 2/11/3 3/13/3 12/14/3 11/15/3
f 3/13/3 1/7/3 13/16/3 12/14/3
f 1/7/3 2/11/3 11/15/3 13/16/3
f 1/7/4 3/2/4 15/17/4 14/18/4
f 3/2/4 4/8/4 16/19/4 15/17/4
f 4/8/4 1/7/4 14/18/4 16/19/4
f 17/4/1 18/3/1 19/6/1
f 6/3/5 18/3/5 17/4/5 5/4/5
f 7/6/6 19/6/6 18/3/6 6/3/6
f 5/4/7 17/4/7 19/6/7 7/6/7
f 20/10/2 21/9/2 22/12/2
f 9/9/8 21/9/8 20/10/8 8/10/8
f 10/12/9 22/12/9 21/9/9 9/9/9
f 8/10/10 20/10/10 22/12/10 10/12/10
f 23/15/3 24/14/3 25/16/3
f 12/14/11 24/14/11 23/15/11 11/15/11
f 13/16/12 25/16/12 24/14/12 12/14/12
f 11/15/13 23/15/13 25/16/13 13/16/13
f 26/18/4 27/17/4 28/19/4
f 15/17/14 27/17/14 26/18/14 14/18/14
f 16/19/15 28/19/15 27/17/15 15/17/15
f 14/18/16 26/18/16 28/19/16 16/19/16
