# Blender 4.5.3 LTS
# www.blender.org
mtllib BaseD6.mtl
o Cube.001
v -1.000000 -1.000000 1.000000
v -1.000000 1.000000 1.000000
v -1.000000 -1.000000 -1.000000
v -1.000000 1.000000 -1.000000
v 1.000000 -1.000000 1.000000
v 1.000000 1.000000 1.000000
v 1.000000 -1.000000 -1.000000
v 1.000000 1.000000 -1.000000
v -1.000000 -0.821868 0.821868
v -1.000000 0.821868 0.821868
v -1.000000 0.821868 -0.821868
v -1.000000 -0.821868 -0.821868
v -0.821868 -0.821868 -1.000000
v -0.821868 0.821868 -1.000000
v 0.821868 0.821868 -1.000000
v 0.821868 -0.821868 -1.000000
v 1.000000 -0.821868 -0.821868
v 1.000000 0.821868 -0.821868
v 1.000000 0.821868 0.821868
v 1.000000 -0.821868 0.821868
v 0.821868 -0.821868 1.000000
v 0.821868 0.821868 1.000000
v -0.821868 0.821868 1.000000
v -0.821868 -0.821868 1.000000
v -0.821868 -1.000000 -0.821868
v 0.821868 -1.000000 -0.821868
v 0.821868 -1.000000 0.821868
v -0.821868 -1.000000 0.821868
v 0.821868 1.000000 -0.821868
v -0.821868 1.000000 -0.821868
v -0.821868 1.000000 0.821868
v 0.821868 1.000000 0.821868
v -0.900000 -0.821868 0.821868
v -0.900000 0.821868 0.821868
v -0.900000 0.821868 -0.821868
v -0.900000 -0.821868 -0.821868
v -0.821868 -0.821868 -0.900000
v -0.821868 0.821868 -0.900000
v 0.821868 0.821868 -0.900000
v 0.821868 -0.821868 -0.900000
v 0.900000 -0.821868 -0.821868
v 0.900000 0.821868 -0.821868
v 0.900000 0.821868 0.821868
v 0.900000 -0.821868 0.821868
v 0.821868 -0.821868 0.900000
v 0.821868 0.821868 0.900000
v -0.821868 0.821868 0.900000
v -0.821868 -0.821868 0.900000
v -0.821868 -0.900000 -0.821868
v 0.821868 -0.900000 -0.821868
v 0.821868 -0.900000 0.821868
v -0.821868 -0.900000 0.821868
v 0.821868 0.900000 -0.821868
v -0.821868 0.900000 -0.821868
v -0.821868 0.900000 0.821868
v 0.821868 0.900000 0.821868
vn -1.0000 -0.0000 -0.0000
vn -0.0000 -0.0000 -1.0000
vn 1.0000 -0.0000 -0.0000
vn -0.0000 -0.0000 1.0000
vn -0.0000 -1.0000 -0.0000
vn -0.0000 1.0000 -0.0000
vt 0.375000 0.000000
vt 0.625000 0.000000
vt 0.602734 0.022266
vt 0.397266 0.022266
vt 0.625000 0.250000
vt 0.602734 0.227734
vt 0.375000 0.250000
vt 0.397266 0.227734
vt 0.602734 0.272266
vt 0.397266 0.272266
vt 0.625000 0.500000
vt 0.602734 0.477734
vt 0.375000 0.500000
vt 0.397266 0.477734
vt 0.602734 0.522266
vt 0.397266 0.522267
vt 0.625000 0.750000
vt 0.602734 0.727733
vt 0.375000 0.750000
vt 0.397266 0.727733
vt 0.602734 0.772266
vt 0.397266 0.772266
vt 0.625000 1.000000
vt 0.602734 0.977734
vt 0.375000 1.000000
vt 0.397266 0.977734
vt 0.125000 0.500000
vt 0.352733 0.522266
vt 0.147266 0.522267
vt 0.352734 0.727733
vt 0.125000 0.750000
vt 0.147266 0.727733
vt 0.875000 0.500000
vt 0.852734 0.522266
vt 0.647267 0.522267
vt 0.875000 0.750000
vt 0.852734 0.727733
vt 0.647267 0.727733
s 0
usemtl Material.001
f 1/1/1 2/2/1 10/3/1 9/4/1
f 2/2/1 4/5/1 11/6/1 10/3/1
f 4/5/1 3/7/1 12/8/1 11/6/1
f 3/7/1 1/1/1 9/4/1 12/8/1
f 3/7/2 4/5/2 14/9/2 13/10/2
f 4/5/2 8/11/2 15/12/2 14/9/2
f 8/11/2 7/13/2 16/14/2 15/12/2
f 7/13/2 3/7/2 13/10/2 16/14/2
f 7/13/3 8/11/3 18/15/3 17/16/3
f 8/11/3 6/17/3 19/18/3 18/15/3
f 6/17/3 5/19/3 20/20/3 19/18/3
f 5/19/3 7/13/3 17/16/3 20/20/3
f 5/19/4 6/17/4 22/21/4 21/22/4
f 6/17/4 2/23/4 23/24/4 22/21/4
f 2/23/4 1/25/4 24/26/4 23/24/4
f 1/25/4 5/19/4 21/22/4 24/26/4
f 3/27/5 7/13/5 26/28/5 25/29/5
f 7/13/5 5/19/5 27/30/5 26/28/5
f 5/19/5 1/31/5 28/32/5 27/30/5
f 1/31/5 3/27/5 25/29/5 28/32/5
f 8/11/6 4/33/6 30/34/6 29/35/6
f 4/33/6 2/36/6 31/37/6 30/34/6
f 2/36/6 6/17/6 32/38/6 31/37/6
f 6/17/6 8/11/6 29/35/6 32/38/6
f 33/4/1 34/3/1 35/6/1 36/8/1
f 10/3/2 34/3/2 33/4/2 9/4/2
f 11/6/5 35/6/5 34/3/5 10/3/5
f 12/8/4 36/8/4 35/6/4 11/6/4
f 9/4/6 33/4/6 36/8/6 12/8/6
f 37/10/2 38/9/2 39/12/2 40/14/2
f 14/9/3 38/9/3 37/10/3 13/10/3
f 15/12/5 39/12/5 38/9/5 14/9/5
f 16/14/1 40/14/1 39/12/1 15/12/1
f 13/10/6 37/10/6 40/14/6 16/14/6
f 41/16/3 42/15/3 43/18/3 44/20/3
f 18/15/4 42/15/4 41/16/4 17/16/4
f 19/18/5 43/18/5 42/15/5 18/15/5
f 20/20/2 44/20/2 43/18/2 19/18/2
f 17/16/6 41/16/6 44/20/6 20/20/6
f 45/22/4 46/21/4 47/24/4 48/26/4
f 22/21/1 46/21/1 45/22/1 21/22/1
f 23/24/5 47/24/5 46/21/5 22/21/5
f 24/26/3 48/26/3 47/24/3 23/24/3
f 21/22/6 45/22/6 48/26/6 24/26/6
f 49/29/5 50/28/5 51/30/5 52/32/5
f 26/28/4 50/28/4 49/29/4 25/29/4
f 27/30/1 51/30/1 50/28/1 26/28/1
f 28/32/2 52/32/2 51/30/2 27/30/2
f 25/29/3 49/29/3 52/32/3 28/32/3
f 53/35/6 54/34/6 55/37/6 56/38/6
f 30/34/4 54/34/4 53/35/4 29/35/4
f 31/37/3 55/37/3 54/34/3 30/34/3
f 32/38/2 56/38/2 55/37/2 31/37/2
f 29/35/1 53/35/1 56/38/1 32/38/1
