# Blender 4.5.3 LTS
# www.blender.org
mtllib BaseD10.mtl
o D10Model
v 0.000000 -2.028746 0.000000
v -0.552770 0.138843 1.701280
v 1.447200 0.138843 -1.051440
v 0.552770 -0.259297 1.701280
v -1.447200 -0.259297 1.051440
v 0.552770 -0.259297 -1.701280
v 0.000000 1.908291 0.000000
v -1.788850 0.138843 0.000000
v -0.552770 0.138843 -1.701280
v 1.447200 0.138843 1.051440
v -1.447200 -0.259297 -1.051440
v 1.788850 -0.259297 0.000000
v -1.399461 -0.317144 -0.838374
v -0.247100 -1.729329 0.000000
v -1.399461 -0.317144 0.838374
v -1.673454 -0.000985 0.000000
v 1.624988 -0.317145 -0.144313
v 0.199904 -1.729332 -0.145239
v 0.639387 -0.317146 -1.500845
v 1.353845 -0.000984 -0.983613
v 1.673454 -0.119470 0.000000
v 1.399461 0.196689 -0.838374
v 0.247100 1.608874 0.000000
v 1.399461 0.196689 0.838374
v 0.517112 -0.119470 1.591533
v 1.229808 0.196691 1.071879
v 0.076358 1.608875 0.235002
v -0.364885 0.196690 1.590035
v 0.517112 -0.119470 -1.591533
v -0.364885 0.196690 -1.590035
v 0.076358 1.608875 -0.235002
v 1.229808 0.196691 -1.071879
v -1.353845 -0.119471 0.983613
v -0.639387 0.196692 1.500845
v -0.199904 1.608877 0.145239
v -1.624988 0.196690 0.144313
v -1.353845 -0.119471 -0.983613
v -1.624988 0.196690 -0.144313
v -0.199904 1.608877 -0.145239
v -0.639387 0.196692 -1.500845
v 0.199904 -1.729332 0.145239
v 1.624988 -0.317145 0.144313
v 1.353845 -0.000984 0.983613
v 0.639387 -0.317146 1.500845
v 0.364885 -0.317144 -1.590035
v -0.076358 -1.729330 -0.235002
v -1.229808 -0.317146 -1.071879
v -0.517112 -0.000985 -1.591533
v 0.364885 -0.317144 1.590035
v -0.517112 -0.000985 1.591533
v -1.229808 -0.317146 1.071879
v -0.076358 -1.729330 0.235002
v -1.296203 -0.231929 -0.838374
v -0.143843 -1.644114 0.000000
v -1.296203 -0.231929 0.838374
v -1.570197 0.084231 0.000000
v 1.541452 -0.231930 -0.083619
v 0.116368 -1.644117 -0.084545
v 0.555850 -0.231932 -1.440151
v 1.270308 0.084230 -0.922919
v 1.570197 -0.204685 0.000000
v 1.296203 0.111474 -0.838374
v 0.143843 1.523659 0.000000
v 1.296203 0.111474 0.838374
v 0.485203 -0.204685 1.493330
v 1.197900 0.111477 0.973675
v 0.044449 1.523661 0.136799
v -0.396793 0.111475 1.491832
v 0.485203 -0.204685 -1.493330
v -0.396793 0.111475 -1.491832
v 0.044449 1.523661 -0.136799
v 1.197900 0.111477 -0.973675
v -1.270308 -0.204685 0.922919
v -0.555850 0.111477 1.440151
v -0.116368 1.523662 0.084545
v -1.541452 0.111475 0.083619
v -1.270308 -0.204685 -0.922919
v -1.541452 0.111475 -0.083619
v -0.116368 1.523662 -0.084545
v -0.555850 0.111477 -1.440151
v 0.116368 -1.644117 0.084545
v 1.541452 -0.231930 0.083619
v 1.270308 0.084230 0.922919
v 0.555850 -0.231932 1.440151
v 0.396793 -0.231930 -1.491832
v -0.044449 -1.644115 -0.136799
v -1.197900 -0.231931 -0.973675
v -0.485203 0.084230 -1.493330
v 0.396793 -0.231930 1.491832
v -0.485203 0.084230 1.493330
v -1.197900 -0.231931 0.973675
v -0.044449 -1.644115 0.136799
vn -0.7731 -0.6342 -0.0043
vn -0.7731 -0.6342 0.0043
vn -0.7672 -0.6413 0.0075
vn -0.7672 -0.6413 -0.0075
vn 0.6280 -0.6342 -0.4510
vn 0.6229 -0.6342 -0.4579
vn 0.6163 -0.6413 -0.4571
vn 0.6251 -0.6413 -0.4449
vn 0.7672 0.6413 -0.0075
vn 0.7731 0.6342 -0.0043
vn 0.7731 0.6342 0.0043
vn 0.7672 0.6413 0.0075
vn 0.2443 0.6413 0.7274
vn 0.2430 0.6342 0.7340
vn 0.2348 0.6342 0.7366
vn 0.2299 0.6413 0.7320
vn 0.2299 0.6413 -0.7320
vn 0.2348 0.6342 -0.7366
vn 0.2430 0.6342 -0.7340
vn 0.2443 0.6413 -0.7274
vn -0.6163 0.6413 0.4571
vn -0.6229 0.6342 0.4579
vn -0.6280 0.6342 0.4510
vn -0.6251 0.6413 0.4449
vn -0.6251 0.6413 -0.4449
vn -0.6280 0.6342 -0.4510
vn -0.6229 0.6342 -0.4579
vn -0.6163 0.6413 -0.4571
vn 0.6280 -0.6342 0.4510
vn 0.6251 -0.6413 0.4449
vn 0.6163 -0.6413 0.4571
vn 0.6229 -0.6342 0.4579
vn -0.2348 -0.6342 -0.7366
vn -0.2430 -0.6342 -0.7340
vn -0.2443 -0.6413 -0.7274
vn -0.2299 -0.6413 -0.7320
vn -0.2299 -0.6413 0.7320
vn -0.2443 -0.6413 0.7274
vn -0.2430 -0.6342 0.7340
vn -0.2348 -0.6342 0.7366
vn -0.7713 -0.6365 -0.0000
vn -0.2660 0.3223 0.9085
vn -0.2660 0.3223 -0.9085
vn 0.5696 -0.6902 -0.4464
vn 0.5696 -0.6902 0.4464
vn 0.6240 -0.6365 -0.4533
vn -0.3188 0.3223 -0.8913
vn 0.7492 0.3223 0.5786
vn -0.1984 -0.6902 0.6959
vn -0.7232 -0.6902 -0.0264
vn 0.7713 0.6365 -0.0000
vn -0.5696 0.6902 0.4464
vn 0.2660 -0.3223 0.9085
vn 0.2660 -0.3223 -0.9085
vn -0.5696 0.6902 -0.4464
vn 0.2383 0.6365 0.7335
vn -0.6006 0.6902 -0.4037
vn -0.7818 -0.3223 0.5337
vn 0.9462 -0.3223 -0.0278
vn 0.2485 0.6902 -0.6796
vn 0.2383 0.6365 -0.7335
vn 0.2485 0.6902 0.6796
vn 0.9462 -0.3223 0.0278
vn -0.7818 -0.3223 -0.5337
vn -0.6006 0.6902 0.4037
vn -0.6240 0.6365 0.4533
vn 0.1984 0.6902 -0.6959
vn -0.7492 -0.3223 -0.5786
vn 0.3188 -0.3223 0.8913
vn 0.7232 0.6902 0.0264
vn -0.6240 0.6365 -0.4533
vn 0.7232 0.6902 -0.0264
vn 0.3188 -0.3223 -0.8913
vn -0.7492 -0.3223 0.5786
vn 0.1984 0.6902 0.6959
vn 0.6240 -0.6365 0.4533
vn -0.3188 0.3223 0.8913
vn -0.7232 -0.6902 0.0264
vn -0.1984 -0.6902 -0.6959
vn 0.7492 0.3223 -0.5786
vn -0.2383 -0.6365 -0.7335
vn -0.9462 0.3223 0.0278
vn 0.7818 0.3223 -0.5337
vn 0.6006 -0.6902 0.4037
vn -0.2485 -0.6902 0.6796
vn -0.2383 -0.6365 0.7335
vn -0.2485 -0.6902 -0.6796
vn 0.6006 -0.6902 -0.4037
vn 0.7818 0.3223 0.5337
vn -0.9462 0.3223 -0.0278
vt 0.727273 0.157461
vt 0.909091 0.000000
vt 0.893838 0.026420
vt 0.750726 0.148746
vt 0.909091 0.157461
vt 0.895700 0.148746
vt 0.818182 0.157461
vt 0.820747 0.153019
vt 0.363637 0.157461
vt 0.545455 0.000000
vt 0.530202 0.026419
vt 0.387090 0.148746
vt 0.545455 0.157461
vt 0.532065 0.148746
vt 0.454546 0.157461
vt 0.457111 0.153019
vt 0.363637 0.314921
vt 0.454546 0.314921
vt 0.431093 0.323636
vt 0.361072 0.319363
vt 0.272728 0.472382
vt 0.287981 0.445962
vt 0.272728 0.314921
vt 0.286119 0.323636
vt 0.181819 0.314921
vt 0.249275 0.323636
vt 0.179254 0.319363
vt 0.090910 0.472382
vt 0.106163 0.445963
vt 0.090910 0.314921
vt 0.104300 0.323636
vt 0.545455 0.314921
vt 0.636364 0.314921
vt 0.612911 0.323636
vt 0.542890 0.319363
vt 0.454546 0.472382
vt 0.469799 0.445963
vt 0.467936 0.323636
vt 0.000000 0.314921
vt 0.140086 0.323636
vt 0.111480 0.319363
vt 0.818182 0.472382
vt 0.753118 0.445963
vt 0.818182 0.314921
vt 0.719982 0.323636
vt 0.727273 0.314921
vt 0.794729 0.323636
vt 0.724708 0.319363
vt 0.636364 0.472382
vt 0.651617 0.445963
vt 0.649754 0.323636
vt 0.363637 0.000000
vt 0.350246 0.148746
vt 0.348384 0.026419
vt 0.272728 0.157461
vt 0.275293 0.153019
vt 0.181819 0.157461
vt 0.205272 0.148746
vt 0.727273 0.000000
vt 0.712020 0.026419
vt 0.568908 0.148746
vt 0.713883 0.148746
vt 0.636364 0.157461
vt 0.638929 0.153019
vt 1.000000 0.157461
vt 0.888520 0.153019
vt 0.280019 0.148746
vt 0.859915 0.148746
vt 0.181819 0.000000
vt 0.246883 0.026419
s 0
f 11/1/1 1/2/1 14/3/1 13/4/1
f 1/2/2 5/5/2 15/6/2 14/3/2
f 5/5/3 8/7/3 16/8/3 15/6/3
f 8/7/4 11/1/4 13/4/4 16/8/4
f 12/9/5 1/10/5 18/11/5 17/12/5
f 1/10/6 6/13/6 19/14/6 18/11/6
f 6/13/7 3/15/7 20/16/7 19/14/7
f 3/15/8 12/9/8 17/12/8 20/16/8
f 12/17/9 3/18/9 22/19/9 21/20/9
f 3/18/10 7/21/10 23/22/10 22/19/10
f 7/21/11 10/23/11 24/24/11 23/22/11
f 10/23/12 12/17/12 21/20/12 24/24/12
f 4/25/13 10/23/13 26/26/13 25/27/13
f 10/23/14 7/28/14 27/29/14 26/26/14
f 7/28/15 2/30/15 28/31/15 27/29/15
f 2/30/16 4/25/16 25/27/16 28/31/16
f 6/32/17 9/33/17 30/34/17 29/35/17
f 9/33/18 7/36/18 31/37/18 30/34/18
f 7/36/19 3/18/19 32/38/19 31/37/19
f 3/18/20 6/32/20 29/35/20 32/38/20
f 5/39/21 2/30/21 34/40/21 33/41/21
f 2/30/22 7/42/22 35/43/22 34/40/22
f 7/42/23 8/44/23 36/45/23 35/43/23
f 8/44/24 5/39/24 33/41/24 36/45/24
f 11/46/25 8/44/25 38/47/25 37/48/25
f 8/44/26 7/49/26 39/50/26 38/47/26
f 7/49/27 9/33/27 40/51/27 39/50/27
f 9/33/28 11/46/28 37/48/28 40/51/28
f 1/52/29 12/9/29 42/53/29 41/54/29
f 12/9/30 10/55/30 43/56/30 42/53/30
f 10/55/31 4/57/31 44/58/31 43/56/31
f 4/57/32 1/52/32 41/54/32 44/58/32
f 6/13/33 1/59/33 46/60/33 45/61/33
f 1/59/34 11/1/34 47/62/34 46/60/34
f 11/1/35 9/63/35 48/64/35 47/62/35
f 9/63/36 6/13/36 45/61/36 48/64/36
f 4/57/37 2/65/37 50/66/37 49/67/37
f 2/65/38 5/5/38 51/68/38 50/66/38
f 5/5/39 1/69/39 52/70/39 51/68/39
f 1/69/40 4/57/40 49/67/40 52/70/40
f 53/4/41 54/3/41 55/6/41 56/8/41
f 14/3/42 54/3/42 53/4/42 13/4/42
f 15/6/43 55/6/43 54/3/43 14/3/43
f 16/8/44 56/8/44 55/6/44 15/6/44
f 13/4/45 53/4/45 56/8/45 16/8/45
f 57/12/46 58/11/46 59/14/46 60/16/46
f 18/11/47 58/11/47 57/12/47 17/12/47
f 19/14/48 59/14/48 58/11/48 18/11/48
f 20/16/49 60/16/49 59/14/49 19/14/49
f 17/12/50 57/12/50 60/16/50 20/16/50
f 61/20/51 62/19/51 63/22/51 64/24/51
f 22/19/52 62/19/52 61/20/52 21/20/52
f 23/22/53 63/22/53 62/19/53 22/19/53
f 24/24/54 64/24/54 63/22/54 23/22/54
f 21/20/55 61/20/55 64/24/55 24/24/55
f 65/27/56 66/26/56 67/29/56 68/31/56
f 26/26/57 66/26/57 65/27/57 25/27/57
f 27/29/58 67/29/58 66/26/58 26/26/58
f 28/31/59 68/31/59 67/29/59 27/29/59
f 25/27/60 65/27/60 68/31/60 28/31/60
f 69/35/61 70/34/61 71/37/61 72/38/61
f 30/34/62 70/34/62 69/35/62 29/35/62
f 31/37/63 71/37/63 70/34/63 30/34/63
f 32/38/64 72/38/64 71/37/64 31/37/64
f 29/35/65 69/35/65 72/38/65 32/38/65
f 73/41/66 74/40/66 75/43/66 76/45/66
f 34/40/67 74/40/67 73/41/67 33/41/67
f 35/43/68 75/43/68 74/40/68 34/40/68
f 36/45/69 76/45/69 75/43/69 35/43/69
f 33/41/70 73/41/70 76/45/70 36/45/70
f 77/48/71 78/47/71 79/50/71 80/51/71
f 38/47/72 78/47/72 77/48/72 37/48/72
f 39/50/73 79/50/73 78/47/73 38/47/73
f 40/51/74 80/51/74 79/50/74 39/50/74
f 37/48/75 77/48/75 80/51/75 40/51/75
f 81/54/76 82/53/76 83/56/76 84/58/76
f 42/53/77 82/53/77 81/54/77 41/54/77
f 43/56/78 83/56/78 82/53/78 42/53/78
f 44/58/79 84/58/79 83/56/79 43/56/79
f 41/54/80 81/54/80 84/58/80 44/58/80
f 85/61/81 86/60/81 87/62/81 88/64/81
f 46/60/82 86/60/82 85/61/82 45/61/82
f 47/62/83 87/62/83 86/60/83 46/60/83
f 48/64/84 88/64/84 87/62/84 47/62/84
f 45/61/85 85/61/85 88/64/85 48/64/85
f 89/67/86 90/66/86 91/68/86 92/70/86
f 50/66/87 90/66/87 89/67/87 49/67/87
f 51/68/88 91/68/88 90/66/88 50/66/88
f 52/70/89 92/70/89 91/68/89 51/68/89
f 49/67/90 89/67/90 92/70/90 52/70/90
