# Blender 4.5.4 LTS
# www.blender.org
mtllib D10_Simple.mtl
o D10_Simple
v 0.000000 -1.635042 0.000000
v -0.442216 0.099029 1.361024
v 1.157760 0.099029 -0.841152
v 0.442216 -0.219483 1.361024
v -1.157760 -0.219483 0.841152
v 0.442216 -0.219483 -1.361024
v 0.000000 1.514587 0.000000
v -1.431080 0.099029 0.000000
v -0.442216 0.099029 -1.361024
v 1.157760 0.099029 0.841152
v -1.157760 -0.219483 -0.841152
v 1.431080 -0.219483 0.000000
vn -0.7713 -0.6365 -0.0000
vn 0.6240 -0.6365 -0.4534
vn 0.7713 0.6365 -0.0000
vn 0.2383 0.6365 0.7335
vn 0.2383 0.6365 -0.7335
vn -0.6240 0.6365 0.4533
vn -0.6240 0.6365 -0.4534
vn 0.6240 -0.6365 0.4533
vn -0.2383 -0.6365 -0.7335
vn -0.2383 -0.6365 0.7335
vt 0.405258 0.118728
vt 0.219023 0.530799
vt 0.027327 0.121237
vt 0.215665 0.025699
vt 0.027327 0.121237
vt 0.027328 0.121237
s 0
usemtl MatGeneral
f 11/1/1 1/2/1 5/3/1 8/4/1
f 12/1/2 1/2/2 6/3/2 3/4/2
f 12/4/3 3/1/3 7/2/3 10/3/3
f 4/4/4 10/1/4 7/2/4 2/3/4
f 6/4/5 9/1/5 7/2/5 3/3/5
f 5/4/6 2/1/6 7/2/6 8/5/6
f 11/4/7 8/1/7 7/2/7 9/3/7
f 1/2/8 12/3/8 10/4/8 4/1/8
f 6/1/9 1/2/9 11/6/9 9/4/9
f 4/5/10 2/4/10 5/1/10 1/2/10
