# Blender 4.5.4 LTS
# www.blender.org
mtllib D10Complex.mtl
o D10Complex
v 0.000000 -1.635042 0.000000
v -0.442216 0.099029 1.361024
v 1.157760 0.099029 -0.841152
v 0.442216 -0.219483 1.361024
v -1.157760 -0.219483 0.841152
v 0.442216 -0.219483 -1.361024
v 0.000000 1.514587 0.000000
v -1.431080 0.099029 0.000000
v -0.442216 0.099029 -1.361024
v 1.157760 0.099029 0.841152
v -1.157760 -0.219483 -0.841152
v 1.431080 -0.219483 0.000000
v -1.129510 -0.253715 -0.715068
v -0.146224 -1.457859 0.000000
v -1.129510 -0.253715 0.715068
v -1.362794 0.016284 0.000000
v 1.334113 -0.253715 -0.085399
v 0.118295 -1.457861 -0.085947
v 0.493472 -0.253716 -1.242415
v 1.102516 0.016285 -0.801015
v 1.362794 -0.136739 0.000000
v 1.129510 0.133260 -0.715068
v 0.146224 1.337404 0.000000
v 1.129510 0.133260 0.715068
v 0.421115 -0.136739 1.296080
v 1.029117 0.133261 0.853247
v 0.045186 1.337405 0.139065
v -0.331033 0.133260 1.295194
v 0.421115 -0.136739 -1.296080
v -0.331033 0.133260 -1.295194
v 0.045186 1.337405 -0.139065
v 1.029116 0.133261 -0.853247
v -1.102516 -0.136739 0.801015
v -0.493472 0.133261 1.242415
v -0.118295 1.337406 0.085947
v -1.334113 0.133260 0.085399
v -1.102516 -0.136739 -0.801015
v -1.334113 0.133260 -0.085399
v -0.118295 1.337406 -0.085947
v -0.493472 0.133261 -1.242415
v 0.118295 -1.457861 0.085947
v 1.334113 -0.253715 0.085399
v 1.102516 0.016285 0.801015
v 0.493472 -0.253716 1.242415
v 0.331033 -0.253715 -1.295194
v -0.045186 -1.457860 -0.139065
v -1.029116 -0.253716 -0.853247
v -0.421115 0.016284 -1.296080
v 0.331033 -0.253715 1.295194
v -0.421115 0.016284 1.296080
v -1.029117 -0.253716 0.853247
v -0.045186 -1.457860 0.139065
v -1.073978 -0.207886 -0.715068
v -0.090692 -1.412031 0.000000
v -1.073978 -0.207886 0.715068
v -1.307262 0.062113 0.000000
v 1.289187 -0.207887 -0.052758
v 0.073369 -1.412033 -0.053305
v 0.448546 -0.207888 -1.209773
v 1.057590 0.062113 -0.768373
v 1.307262 -0.182568 0.000000
v 1.073978 0.087431 -0.715068
v 0.090692 1.291576 0.000000
v 1.073978 0.087431 0.715068
v 0.403955 -0.182567 1.243267
v 1.011956 0.087433 0.800433
v 0.028025 1.291577 0.086251
v -0.348193 0.087432 1.242380
v 0.403955 -0.182567 -1.243267
v -0.348193 0.087432 -1.242380
v 0.028025 1.291577 -0.086251
v 1.011956 0.087433 -0.800433
v -1.057590 -0.182568 0.768373
v -0.448546 0.087433 1.209773
v -0.073369 1.291578 0.053305
v -1.289187 0.087432 0.052758
v -1.057590 -0.182568 -0.768373
v -1.289187 0.087432 -0.052758
v -0.073369 1.291578 -0.053305
v -0.448546 0.087433 -1.209773
v 0.073369 -1.412033 0.053305
v 1.289187 -0.207887 0.052758
v 1.057590 0.062113 0.768373
v 0.448546 -0.207888 1.209773
v 0.348193 -0.207887 -1.242380
v -0.028025 -1.412032 -0.086251
v -1.011956 -0.207888 -0.800433
v -0.403955 0.062113 -1.243267
v 0.348193 -0.207887 1.242380
v -0.403955 0.062113 1.243267
v -1.011956 -0.207888 0.800433
v -0.028025 -1.412032 0.086251
vn -0.7731 -0.6343 -0.0042
vn -0.7731 -0.6343 0.0042
vn -0.7674 -0.6412 0.0073
vn -0.7674 -0.6412 -0.0073
vn 0.6279 -0.6343 -0.4510
vn 0.6230 -0.6343 -0.4578
vn 0.6165 -0.6412 -0.4570
vn 0.6251 -0.6412 -0.4451
vn 0.7674 0.6412 -0.0073
vn 0.7731 0.6343 -0.0042
vn 0.7731 0.6343 0.0042
vn 0.7674 0.6412 0.0073
vn 0.2441 0.6412 0.7275
vn 0.2429 0.6343 0.7339
vn 0.2349 0.6343 0.7365
vn 0.2302 0.6412 0.7321
vn 0.2302 0.6412 -0.7321
vn 0.2349 0.6343 -0.7365
vn 0.2429 0.6343 -0.7339
vn 0.2441 0.6412 -0.7275
vn -0.6165 0.6412 0.4570
vn -0.6230 0.6343 0.4578
vn -0.6279 0.6343 0.4510
vn -0.6251 0.6412 0.4451
vn -0.6251 0.6412 -0.4451
vn -0.6279 0.6343 -0.4510
vn -0.6230 0.6343 -0.4578
vn -0.6165 0.6412 -0.4570
vn 0.6279 -0.6343 0.4510
vn 0.6251 -0.6412 0.4451
vn 0.6165 -0.6412 0.4570
vn 0.6230 -0.6343 0.4578
vn -0.2349 -0.6343 -0.7365
vn -0.2429 -0.6343 -0.7339
vn -0.2441 -0.6412 -0.7275
vn -0.2302 -0.6412 -0.7321
vn -0.2302 -0.6412 0.7321
vn -0.2441 -0.6412 0.7275
vn -0.2429 -0.6343 0.7339
vn -0.2349 -0.6343 0.7365
vn -0.7713 -0.6365 -0.0000
vn -0.2660 0.3223 0.9085
vn -0.2660 0.3223 -0.9085
vn 0.5696 -0.6902 -0.4464
vn 0.5696 -0.6902 0.4464
vn 0.6240 -0.6365 -0.4533
vn -0.3188 0.3223 -0.8913
vn 0.7492 0.3223 0.5786
vn -0.1984 -0.6902 0.6959
vn -0.7232 -0.6902 -0.0264
vn 0.7713 0.6365 -0.0000
vn -0.5696 0.6902 0.4464
vn 0.2660 -0.3223 0.9085
vn 0.2660 -0.3223 -0.9085
vn -0.5696 0.6902 -0.4464
vn 0.2383 0.6365 0.7335
vn -0.6006 0.6902 -0.4037
vn -0.7818 -0.3223 0.5337
vn 0.9462 -0.3223 -0.0278
vn 0.2485 0.6902 -0.6796
vn 0.2383 0.6365 -0.7335
vn 0.2485 0.6902 0.6796
vn 0.9462 -0.3223 0.0278
vn -0.7818 -0.3223 -0.5337
vn -0.6006 0.6902 0.4037
vn -0.6240 0.6365 0.4533
vn 0.1984 0.6902 -0.6959
vn -0.7492 -0.3223 -0.5786
vn 0.3188 -0.3223 0.8913
vn 0.7232 0.6902 0.0264
vn -0.6240 0.6365 -0.4533
vn 0.7232 0.6902 -0.0264
vn 0.3188 -0.3223 -0.8913
vn -0.7492 -0.3223 0.5786
vn 0.1984 0.6902 0.6959
vn 0.6240 -0.6365 0.4533
vn -0.3188 0.3223 0.8913
vn -0.7232 -0.6902 0.0264
vn -0.1984 -0.6902 -0.6959
vn 0.7492 0.3223 -0.5786
vn -0.2383 -0.6365 -0.7335
vn -0.9462 0.3223 0.0278
vn 0.7818 0.3223 -0.5337
vn 0.6006 -0.6902 0.4037
vn -0.2485 -0.6902 0.6796
vn -0.2383 -0.6365 0.7335
vn -0.2485 -0.6902 -0.6796
vn 0.6006 -0.6902 -0.4037
vn 0.7818 0.3223 0.5337
vn -0.9462 0.3223 -0.0278
vt 0.405941 0.116908
vt 0.219292 0.529894
vt 0.218948 0.478171
vt 0.377619 0.127088
vt 0.027170 0.119422
vt 0.055624 0.129225
vt 0.215926 0.023672
vt 0.216087 0.047829
vt 0.218948 0.478171
vt 0.377619 0.127088
vt 0.055624 0.129226
vt 0.216087 0.047829
vt 0.377619 0.127088
vt 0.216087 0.047829
vt 0.055624 0.129225
vt 0.377620 0.127088
vt 0.216087 0.047829
vt 0.218948 0.478171
vt 0.055624 0.129225
vt 0.377619 0.127088
vt 0.216087 0.047829
vt 0.218948 0.478171
vt 0.055624 0.129226
vt 0.377620 0.127088
vt 0.216087 0.047829
vt 0.218948 0.478171
vt 0.027170 0.119422
vt 0.055624 0.129225
vt 0.216087 0.047829
vt 0.218948 0.478171
vt 0.055624 0.129226
vt 0.055624 0.129225
vt 0.216087 0.047829
vt 0.218948 0.478171
vt 0.377619 0.127088
vt 0.027170 0.119422
vt 0.055624 0.129226
vt 0.216087 0.047829
vt 0.055624 0.129225
vt 0.361055 0.134154
vt 0.218754 0.449015
vt 0.072281 0.136071
vt 0.216188 0.063072
vt 0.361055 0.134154
vt 0.218754 0.449016
vt 0.072281 0.136071
vt 0.216189 0.063072
vt 0.216188 0.063072
vt 0.361055 0.134154
vt 0.216188 0.063072
vt 0.361055 0.134154
vt 0.218754 0.449015
vt 0.072281 0.136071
vt 0.216189 0.063072
vt 0.361055 0.134154
vt 0.218754 0.449016
vt 0.072281 0.136071
vt 0.216188 0.063072
vt 0.361055 0.134154
vt 0.218754 0.449016
vt 0.072281 0.136071
vt 0.216189 0.063072
vt 0.218754 0.449016
vt 0.072281 0.136071
vt 0.216188 0.063072
vt 0.361055 0.134154
vt 0.218754 0.449015
vt 0.072281 0.136071
vt 0.216189 0.063072
vt 0.072281 0.136071
vt 0.216188 0.063072
vt 0.361055 0.134154
s 0
usemtl MatGeneral
f 11/1/1 1/2/1 14/3/1 13/4/1
f 1/2/2 5/5/2 15/6/2 14/3/2
f 5/5/3 8/7/3 16/8/3 15/6/3
f 8/7/4 11/1/4 13/4/4 16/8/4
f 12/1/5 1/2/5 18/9/5 17/10/5
f 1/2/6 6/5/6 19/11/6 18/9/6
f 6/5/7 3/7/7 20/12/7 19/11/7
f 3/7/8 12/1/8 17/10/8 20/12/8
f 12/7/9 3/1/9 22/13/9 21/14/9
f 3/1/10 7/2/10 23/3/10 22/13/10
f 7/2/11 10/5/11 24/15/11 23/3/11
f 10/5/12 12/7/12 21/14/12 24/15/12
f 4/7/13 10/1/13 26/16/13 25/17/13
f 10/1/14 7/2/14 27/18/14 26/16/14
f 7/2/15 2/5/15 28/19/15 27/18/15
f 2/5/16 4/7/16 25/17/16 28/19/16
f 6/7/17 9/1/17 30/20/17 29/21/17
f 9/1/18 7/2/18 31/22/18 30/20/18
f 7/2/19 3/5/19 32/23/19 31/22/19
f 3/5/20 6/7/20 29/21/20 32/23/20
f 5/7/21 2/1/21 34/24/21 33/25/21
f 2/1/22 7/2/22 35/26/22 34/24/22
f 7/2/23 8/27/23 36/28/23 35/26/23
f 8/27/24 5/7/24 33/25/24 36/28/24
f 11/7/25 8/1/25 38/10/25 37/29/25
f 8/1/26 7/2/26 39/30/26 38/10/26
f 7/2/27 9/5/27 40/31/27 39/30/27
f 9/5/28 11/7/28 37/29/28 40/31/28
f 1/2/29 12/5/29 42/32/29 41/26/29
f 12/5/30 10/7/30 43/33/30 42/32/30
f 10/7/31 4/1/31 44/24/31 43/33/31
f 4/1/32 1/2/32 41/26/32 44/24/32
f 6/1/33 1/2/33 46/34/33 45/35/33
f 1/2/34 11/36/34 47/37/34 46/34/34
f 11/36/35 9/7/35 48/21/35 47/37/35
f 9/7/36 6/1/36 45/35/36 48/21/36
f 4/27/37 2/7/37 50/38/37 49/39/37
f 2/7/38 5/1/38 51/16/38 50/38/38
f 5/1/39 1/2/39 52/34/39 51/16/39
f 1/2/40 4/27/40 49/39/40 52/34/40
f 53/40/41 54/41/41 55/42/41 56/43/41
f 14/3/42 54/41/42 53/40/42 13/4/42
f 15/6/43 55/42/43 54/41/43 14/3/43
f 16/8/44 56/43/44 55/42/44 15/6/44
f 13/4/45 53/40/45 56/43/45 16/8/45
f 57/44/46 58/45/46 59/46/46 60/47/46
f 18/9/47 58/45/47 57/44/47 17/10/47
f 19/11/48 59/46/48 58/45/48 18/9/48
f 20/12/49 60/47/49 59/46/49 19/11/49
f 17/10/50 57/44/50 60/47/50 20/12/50
f 61/48/51 62/49/51 63/41/51 64/42/51
f 22/13/52 62/49/52 61/48/52 21/14/52
f 23/3/53 63/41/53 62/49/53 22/13/53
f 24/15/54 64/42/54 63/41/54 23/3/54
f 21/14/55 61/48/55 64/42/55 24/15/55
f 65/50/56 66/51/56 67/52/56 68/53/56
f 26/16/57 66/51/57 65/50/57 25/17/57
f 27/18/58 67/52/58 66/51/58 26/16/58
f 28/19/59 68/53/59 67/52/59 27/18/59
f 25/17/60 65/50/60 68/53/60 28/19/60
f 69/54/61 70/55/61 71/56/61 72/57/61
f 30/20/62 70/55/62 69/54/62 29/21/62
f 31/22/63 71/56/63 70/55/63 30/20/63
f 32/23/64 72/57/64 71/56/64 31/22/64
f 29/21/65 69/54/65 72/57/65 32/23/65
f 73/58/66 74/59/66 75/60/66 76/61/66
f 34/24/67 74/59/67 73/58/67 33/25/67
f 35/26/68 75/60/68 74/59/68 34/24/68
f 36/28/69 76/61/69 75/60/69 35/26/69
f 33/25/70 73/58/70 76/61/70 36/28/70
f 77/62/71 78/44/71 79/63/71 80/46/71
f 38/10/72 78/44/72 77/62/72 37/29/72
f 39/30/73 79/63/73 78/44/73 38/10/73
f 40/31/74 80/46/74 79/63/74 39/30/74
f 37/29/75 77/62/75 80/46/75 40/31/75
f 81/60/76 82/64/76 83/65/76 84/59/76
f 42/32/77 82/64/77 81/60/77 41/26/77
f 43/33/78 83/65/78 82/64/78 42/32/78
f 44/24/79 84/59/79 83/65/79 43/33/79
f 41/26/80 81/60/80 84/59/80 44/24/80
f 85/66/81 86/67/81 87/68/81 88/69/81
f 46/34/82 86/67/82 85/66/82 45/35/82
f 47/37/83 87/68/83 86/67/83 46/34/83
f 48/21/84 88/69/84 87/68/84 47/37/84
f 45/35/85 85/66/85 88/69/85 48/21/85
f 89/70/86 90/71/86 91/72/86 92/67/86
f 50/38/87 90/71/87 89/70/87 49/39/87
f 51/16/88 91/72/88 90/71/88 50/38/88
f 52/34/89 92/67/89 91/72/89 51/16/89
f 49/39/90 89/70/90 92/67/90 52/34/90
