# Blender 4.5.3 LTS
# www.blender.org
mtllib D10Col.mtl
o D10Collision
v 0.000000 -2.028746 0.000000
v -0.552770 0.138843 1.701280
v 1.447200 0.138843 -1.051440
v 0.552770 -0.259297 1.701280
v -1.447200 -0.259297 1.051440
v 0.552770 -0.259297 -1.701280
v 0.000000 1.908291 0.000000
v -1.788850 0.138843 0.000000
v -0.552770 0.138843 -1.701280
v 1.447200 0.138843 1.051440
v -1.447200 -0.259297 -1.051440
v 1.788850 -0.259297 0.000000
vn -0.7713 -0.6365 -0.0000
vn 0.6240 -0.6365 -0.4534
vn 0.7713 0.6365 -0.0000
vn 0.2383 0.6365 0.7335
vn 0.2383 0.6365 -0.7335
vn -0.6240 0.6365 0.4533
vn -0.6240 0.6365 -0.4533
vn 0.6240 -0.6365 0.4533
vn -0.2383 -0.6365 -0.7335
vn -0.2383 -0.6365 0.7335
vt 0.727273 0.157461
vt 0.909091 0.000000
vt 0.909091 0.157461
vt 0.818182 0.157461
vt 0.363637 0.157461
vt 0.545455 0.000000
vt 0.545455 0.157461
vt 0.454546 0.157461
vt 0.363637 0.314921
vt 0.454546 0.314921
vt 0.272728 0.472382
vt 0.272728 0.314921
vt 0.181819 0.314921
vt 0.090910 0.472382
vt 0.090910 0.314921
vt 0.545455 0.314921
vt 0.636364 0.314921
vt 0.454546 0.472382
vt 0.000000 0.314921
vt 0.818182 0.472382
vt 0.818182 0.314921
vt 0.727273 0.314921
vt 0.636364 0.472382
vt 0.363637 0.000000
vt 0.272728 0.157461
vt 0.181819 0.157461
vt 0.727273 0.000000
vt 0.636364 0.157461
vt 1.000000 0.157461
vt 0.181819 0.000000
s 0
f 11/1/1 1/2/1 5/3/1 8/4/1
f 12/5/2 1/6/2 6/7/2 3/8/2
f 12/9/3 3/10/3 7/11/3 10/12/3
f 4/13/4 10/12/4 7/14/4 2/15/4
f 6/16/5 9/17/5 7/18/5 3/10/5
f 5/19/6 2/15/6 7/20/6 8/21/6
f 11/22/7 8/21/7 7/23/7 9/17/7
f 1/24/8 12/5/8 10/25/8 4/26/8
f 6/7/9 1/27/9 11/1/9 9/28/9
f 4/26/10 2/29/10 5/3/10 1/30/10
