# Blender 4.5.4 LTS
# www.blender.org
mtllib D12_Simple.mtl
o D12_Simple
v -0.267616 1.133642 -0.823640
v 0.700630 1.133642 -0.509038
v 0.700630 1.133642 0.509036
v 1.133642 0.267617 0.823638
v 0.433013 -0.267617 -1.332676
v -0.866025 1.133642 0.000000
v -0.267616 1.133642 0.823638
v -0.433012 0.267617 1.332674
v 0.267616 -1.133642 -0.823640
v -0.700630 -1.133642 0.509037
v 0.267616 -1.133642 0.823639
v -1.401257 0.267617 -0.000000
v -1.133641 -0.267617 0.823639
v -0.433013 0.267617 -1.332675
v -0.700630 -1.133642 -0.509037
v -1.133642 -0.267617 -0.823639
v 1.133641 0.267616 -0.823639
v 1.401258 -0.267617 0.000000
v 0.433012 -0.267617 1.332675
v 0.866025 -1.133642 -0.000000
vn -0.0000 1.0000 -0.0000
vn 0.8944 0.4472 -0.0000
vn 0.2764 0.4472 -0.8507
vn -0.7236 0.4472 -0.5257
vn -0.7236 0.4472 0.5257
vn 0.2764 0.4472 0.8507
vn -0.0000 -1.0000 -0.0000
vn -0.8944 -0.4472 -0.0000
vn -0.2764 -0.4472 -0.8507
vn 0.7236 -0.4472 -0.5257
vn 0.7236 -0.4472 0.5257
vn -0.2764 -0.4472 0.8507
vt 0.510714 0.556105
vt 0.324089 0.420515
vt 0.395373 0.201124
vt 0.626054 0.201124
vt 0.697339 0.420515
vt 0.697338 0.420514
vt 0.510714 0.556105
vt 0.324089 0.420514
vt 0.395373 0.201124
vt 0.626054 0.201124
vt 0.324089 0.420515
vt 0.395373 0.201124
vt 0.697339 0.420515
vt 0.697339 0.420514
vt 0.324089 0.420514
vt 0.395374 0.201123
vt 0.626055 0.201123
vt 0.697339 0.420514
vt 0.324089 0.420514
vt 0.395373 0.201123
vt 0.626054 0.201123
vt 0.324089 0.420514
vt 0.395373 0.201124
vt 0.626054 0.201124
vt 0.697338 0.420514
vt 0.510713 0.556105
vt 0.395373 0.201124
vt 0.626054 0.201124
vt 0.697339 0.420514
vt 0.324089 0.420514
vt 0.324089 0.420515
vt 0.395373 0.201124
vt 0.626054 0.201124
vt 0.324088 0.420514
vt 0.395373 0.201124
vt 0.697338 0.420514
vt 0.510713 0.556105
vt 0.697338 0.420515
vt 0.324089 0.420515
vt 0.395373 0.201124
vt 0.626054 0.201124
vt 0.324089 0.420514
vt 0.395373 0.201124
vt 0.626054 0.201124
vt 0.697339 0.420514
vt 0.395373 0.201124
vt 0.626054 0.201124
s 0
usemtl MatGeneral
f 1/1/1 6/2/1 7/3/1 3/4/1 2/5/1
f 4/6/2 18/7/2 17/8/2 2/9/2 3/10/2
f 17/7/3 5/11/3 14/12/3 1/4/3 2/13/3
f 14/14/4 16/7/4 12/15/4 6/16/4 1/17/4
f 12/18/5 13/7/5 8/19/5 7/20/5 6/21/5
f 8/22/6 19/23/6 4/24/6 3/25/6 7/26/6
f 9/27/7 20/28/7 11/29/7 10/7/7 15/30/7
f 13/13/8 12/1/8 16/31/8 15/32/8 10/33/8
f 16/34/9 14/35/9 5/24/9 9/36/9 15/37/9
f 5/38/10 17/1/10 18/39/10 20/40/10 9/41/10
f 18/42/11 4/43/11 19/44/11 11/29/11 20/7/11
f 19/45/12 8/7/12 13/2/12 10/46/12 11/47/12
