# Blender 4.5.3 LTS
# www.blender.org
mtllib D12Col.mtl
o D12Collision
v 0.823639 0.500000 -0.267617
v 0.509037 0.500000 0.700629
v -0.509037 0.500000 0.700629
v -0.823639 -0.366026 1.133641
v 1.332675 -0.901259 0.433012
v 0.000000 0.500000 -0.866025
v -0.823639 0.500000 -0.267617
v -1.332675 -0.366026 -0.433013
v 0.823638 -1.767285 0.267616
v -0.509038 -1.767285 -0.700630
v -0.823640 -1.767285 0.267616
v -0.000001 -0.366026 -1.401258
v -0.823640 -0.901259 -1.133642
v 1.332674 -0.366026 -0.433013
v 0.509036 -1.767285 -0.700630
v 0.823637 -0.901259 -1.133642
v 0.823638 -0.366026 1.133640
v -0.000001 -0.901259 1.401257
v -1.332676 -0.901259 0.433011
v -0.000001 -1.767285 0.866025
vn -0.0000 1.0000 -0.0000
vn -0.0000 0.4472 0.8944
vn 0.8507 0.4472 0.2764
vn 0.5257 0.4472 -0.7236
vn -0.5257 0.4472 -0.7236
vn -0.8507 0.4472 0.2764
vn -0.0000 -1.0000 -0.0000
vn -0.0000 -0.4472 -0.8944
vn 0.8507 -0.4472 -0.2764
vn 0.5257 -0.4472 0.7236
vn -0.5257 -0.4472 0.7236
vn -0.8507 -0.4472 -0.2764
vt 0.400000 0.666667
vt 0.600000 0.666667
vt 0.800000 0.666667
vt 1.000000 0.666667
vt 0.200000 0.666667
s 0
f 1/1/1 6/2/1 7/3/1 3/4/1 2/5/1
f 4/1/2 18/2/2 17/3/2 2/4/2 3/5/2
f 17/1/3 5/2/3 14/3/3 1/4/3 2/5/3
f 14/1/4 16/2/4 12/3/4 6/4/4 1/5/4
f 12/1/5 13/2/5 8/3/5 7/4/5 6/5/5
f 8/1/6 19/2/6 4/3/6 3/4/6 7/5/6
f 9/1/7 20/2/7 11/3/7 10/4/7 15/5/7
f 13/1/8 12/2/8 16/3/8 15/4/8 10/5/8
f 16/1/9 14/2/9 5/3/9 9/4/9 15/5/9
f 5/1/10 17/2/10 18/3/10 20/4/10 9/5/10
f 18/1/11 4/2/11 19/3/11 11/4/11 20/5/11
f 19/1/12 8/2/12 13/3/12 10/4/12 11/5/12
