# Blender 4.5.4 LTS
# www.blender.org
mtllib D12Complex.mtl
o D12Complex
v -0.267616 1.133642 -0.823640
v 0.700630 1.133642 -0.509038
v 0.700630 1.133642 0.509036
v 1.133642 0.267617 0.823638
v 0.433013 -0.267617 -1.332676
v -0.866025 1.133642 0.000000
v -0.267616 1.133642 0.823638
v -0.433012 0.267617 1.332674
v 0.267616 -1.133642 -0.823640
v -0.700630 -1.133642 0.509037
v 0.267616 -1.133642 0.823639
v -1.401257 0.267617 -0.000000
v -1.133641 -0.267617 0.823639
v -0.433013 0.267617 -1.332675
v -0.700630 -1.133642 -0.509037
v -1.133642 -0.267617 -0.823639
v 1.133641 0.267616 -0.823639
v 1.401258 -0.267617 0.000000
v 0.433012 -0.267617 1.332675
v 0.866025 -1.133642 -0.000000
v -0.233239 1.133642 -0.717839
v -0.754779 1.133642 -0.000000
v -0.233239 1.133642 0.717837
v 0.610630 1.133642 0.443647
v 0.610630 1.133642 -0.443649
v 1.118268 0.298364 0.717837
v 1.351507 -0.168115 -0.000000
v 1.118267 0.298364 -0.717838
v 0.740879 1.053144 -0.443649
v 0.740879 1.053144 0.443647
v 1.028267 0.298364 -0.841712
v 0.417639 -0.168115 -1.285360
v -0.337140 0.298364 -1.285360
v -0.192990 1.053144 -0.841713
v 0.650879 1.053144 -0.567524
v -0.482763 0.298364 -1.238044
v -1.093393 -0.168115 -0.794396
v -1.326631 0.298364 -0.076559
v -0.860153 1.053144 -0.076559
v -0.338613 1.053144 -0.794397
v -1.326631 0.298364 0.076558
v -1.093392 -0.168115 0.794396
v -0.482763 0.298364 1.238043
v -0.338613 1.053144 0.794395
v -0.860153 1.053144 0.076559
v -0.337140 0.298364 1.285359
v 0.417638 -0.168115 1.285359
v 1.028268 0.298364 0.841711
v 0.650879 1.053144 0.567521
v -0.192990 1.053144 0.841711
v 0.233239 -1.133642 -0.717838
v 0.754779 -1.133642 -0.000000
v 0.233239 -1.133642 0.717837
v -0.610630 -1.133642 0.443648
v -0.610630 -1.133642 -0.443648
v -1.118268 -0.298364 0.717838
v -1.351507 0.168115 -0.000000
v -1.118268 -0.298364 -0.717837
v -0.740879 -1.053144 -0.443648
v -0.740879 -1.053144 0.443648
v -1.028268 -0.298364 -0.841712
v -0.417639 0.168115 -1.285360
v 0.337141 -0.298364 -1.285360
v 0.192990 -1.053144 -0.841712
v -0.650879 -1.053144 -0.567523
v 0.482764 -0.298364 -1.238044
v 1.093392 0.168115 -0.794396
v 1.326632 -0.298365 -0.076559
v 0.860153 -1.053144 -0.076559
v 0.338613 -1.053144 -0.794397
v 1.326632 -0.298364 0.076559
v 1.093393 0.168115 0.794395
v 0.482763 -0.298364 1.238044
v 0.338613 -1.053144 0.794396
v 0.860153 -1.053144 0.076558
v 0.337139 -0.298364 1.285360
v -0.417639 0.168115 1.285359
v -1.028268 -0.298364 0.841712
v -0.650879 -1.053144 0.567522
v 0.192990 -1.053144 0.841712
v -0.233239 1.073642 -0.717839
v -0.754779 1.073642 -0.000000
v -0.233239 1.073642 0.717837
v 0.610630 1.073642 0.443647
v 0.610630 1.073642 -0.443649
v 1.064602 0.271531 0.717837
v 1.297841 -0.194948 0.000000
v 1.064601 0.271531 -0.717838
v 0.687213 1.026311 -0.443649
v 0.687213 1.026311 0.443647
v 1.011683 0.271531 -0.790673
v 0.401055 -0.194948 -1.234321
v -0.353724 0.271532 -1.234320
v -0.209573 1.026311 -0.790674
v 0.634295 1.026311 -0.516485
v -0.439347 0.271532 -1.206500
v -1.049976 -0.194948 -0.762852
v -1.283215 0.271532 -0.045015
v -0.816736 1.026311 -0.045015
v -0.295197 1.026311 -0.762853
v -1.283215 0.271532 0.045015
v -1.049976 -0.194948 0.762852
v -0.439347 0.271531 1.206499
v -0.295197 1.026311 0.762851
v -0.816736 1.026311 0.045015
v -0.353724 0.271531 1.234319
v 0.401054 -0.194948 1.234320
v 1.011684 0.271531 0.790672
v 0.634295 1.026311 0.516482
v -0.209574 1.026311 0.790672
v 0.233239 -1.073642 -0.717838
v 0.754779 -1.073642 -0.000000
v 0.233239 -1.073642 0.717837
v -0.610630 -1.073642 0.443648
v -0.610630 -1.073642 -0.443648
v -1.064602 -0.271531 0.717838
v -1.297841 0.194948 -0.000000
v -1.064602 -0.271532 -0.717837
v -0.687213 -1.026311 -0.443648
v -0.687213 -1.026311 0.443648
v -1.011685 -0.271532 -0.790673
v -0.401055 0.194948 -1.234320
v 0.353724 -0.271532 -1.234321
v 0.209574 -1.026311 -0.790673
v -0.634295 -1.026311 -0.516484
v 0.439347 -0.271532 -1.206501
v 1.049975 0.194948 -0.762852
v 1.283215 -0.271532 -0.045015
v 0.816736 -1.026311 -0.045015
v 0.295197 -1.026311 -0.762853
v 1.283215 -0.271532 0.045015
v 1.049976 0.194948 0.762851
v 0.439346 -0.271532 1.206500
v 0.295197 -1.026311 0.762852
v 0.816736 -1.026311 0.045014
v 0.353723 -0.271532 1.234320
v -0.401055 0.194948 1.234319
v -1.011684 -0.271531 0.790673
v -0.634295 -1.026311 0.516483
v 0.209574 -1.026311 0.790673
vn -0.0000 1.0000 -0.0000
vn 0.8944 0.4472 -0.0000
vn 0.2764 0.4472 -0.8507
vn -0.7236 0.4472 -0.5257
vn -0.7236 0.4472 0.5257
vn 0.2764 0.4472 0.8507
vn -0.0000 -1.0000 -0.0000
vn -0.8944 -0.4472 -0.0000
vn -0.2764 -0.4472 -0.8507
vn 0.7236 -0.4472 -0.5257
vn 0.7236 -0.4472 0.5257
vn -0.2764 -0.4472 0.8507
vn 0.8090 -0.0000 0.5878
vn 0.8090 -0.0000 -0.5878
vn -0.3090 -0.0000 -0.9511
vn -1.0000 -0.0000 -0.0000
vn -0.3090 -0.0000 0.9511
vn -0.3618 0.7236 -0.5878
vn -0.3618 0.7236 0.5878
vn 0.1382 -0.2764 0.9511
vn 0.4472 -0.8944 -0.0000
vn 0.1382 -0.2764 -0.9511
vn -0.6708 0.7236 0.1625
vn 0.4472 0.7236 0.5257
vn 0.9472 -0.2764 0.1625
vn 0.1382 -0.8944 -0.4253
vn -0.8618 -0.2764 -0.4253
vn -0.0528 0.7236 0.6882
vn 0.6382 0.7236 -0.2629
vn 0.4472 -0.2764 -0.8507
vn -0.3618 -0.8944 -0.2629
vn -0.6708 -0.2764 0.6882
vn 0.6382 0.7236 0.2629
vn -0.0528 0.7236 -0.6882
vn -0.6708 -0.2764 -0.6882
vn -0.3618 -0.8944 0.2629
vn 0.4472 -0.2764 0.8507
vn 0.4472 0.7236 -0.5257
vn -0.6708 0.7236 -0.1625
vn -0.8618 -0.2764 0.4253
vn 0.1382 -0.8944 0.4253
vn 0.9472 -0.2764 -0.1625
vn -0.8090 -0.0000 0.5878
vn -0.8090 -0.0000 -0.5878
vn 0.3090 -0.0000 -0.9511
vn 1.0000 -0.0000 -0.0000
vn 0.3090 -0.0000 0.9511
vn 0.3618 -0.7236 -0.5878
vn 0.3618 -0.7236 0.5878
vn -0.1382 0.2764 0.9511
vn -0.4472 0.8944 -0.0000
vn -0.1382 0.2764 -0.9511
vn 0.6708 -0.7236 0.1625
vn -0.4472 -0.7236 0.5257
vn -0.9472 0.2764 0.1625
vn -0.1382 0.8944 -0.4253
vn 0.8618 0.2764 -0.4253
vn 0.0528 -0.7236 0.6882
vn -0.6382 -0.7236 -0.2629
vn -0.4472 0.2764 -0.8507
vn 0.3618 0.8944 -0.2629
vn 0.6708 0.2764 0.6882
vn -0.6382 -0.7236 0.2629
vn 0.0528 -0.7236 -0.6882
vn 0.6708 0.2764 -0.6882
vn 0.3618 0.8944 0.2629
vn -0.4472 0.2764 0.8506
vn -0.4472 -0.7236 -0.5257
vn 0.6708 -0.7236 -0.1625
vn 0.8618 0.2764 0.4253
vn -0.1382 0.8944 0.4253
vn -0.9472 0.2764 -0.1625
vt 0.510249 0.556535
vt 0.324372 0.421487
vt 0.348249 0.413729
vt 0.510249 0.531429
vt 0.395371 0.202975
vt 0.410128 0.223286
vt 0.625128 0.202975
vt 0.610371 0.223286
vt 0.696127 0.421487
vt 0.672250 0.413729
vt 0.696127 0.421487
vt 0.510249 0.556535
vt 0.510249 0.531429
vt 0.672250 0.413729
vt 0.324372 0.421487
vt 0.348249 0.413729
vt 0.395371 0.202975
vt 0.410127 0.223286
vt 0.625128 0.202975
vt 0.610371 0.223286
vt 0.324372 0.421487
vt 0.348249 0.413729
vt 0.395371 0.202975
vt 0.410128 0.223286
vt 0.696127 0.421487
vt 0.672250 0.413729
vt 0.696127 0.421487
vt 0.510249 0.531429
vt 0.672250 0.413729
vt 0.324372 0.421487
vt 0.348249 0.413729
vt 0.395371 0.202975
vt 0.410128 0.223286
vt 0.625128 0.202975
vt 0.610372 0.223286
vt 0.696127 0.421487
vt 0.672250 0.413728
vt 0.324372 0.421487
vt 0.348249 0.413729
vt 0.395371 0.202975
vt 0.410128 0.223286
vt 0.625128 0.202975
vt 0.610371 0.223286
vt 0.324372 0.421487
vt 0.395371 0.202975
vt 0.410127 0.223286
vt 0.348249 0.413729
vt 0.625128 0.202975
vt 0.610371 0.223286
vt 0.696127 0.421487
vt 0.672249 0.413729
vt 0.510249 0.556534
vt 0.510249 0.531429
vt 0.395371 0.202975
vt 0.625128 0.202975
vt 0.610371 0.223286
vt 0.410128 0.223286
vt 0.696127 0.421487
vt 0.672250 0.413729
vt 0.324372 0.421487
vt 0.348249 0.413729
vt 0.696127 0.421487
vt 0.510249 0.531429
vt 0.672250 0.413729
vt 0.324372 0.421487
vt 0.348249 0.413729
vt 0.395371 0.202975
vt 0.410128 0.223286
vt 0.625128 0.202975
vt 0.610371 0.223286
vt 0.324372 0.421487
vt 0.395371 0.202975
vt 0.410127 0.223286
vt 0.348249 0.413729
vt 0.696126 0.421487
vt 0.672249 0.413729
vt 0.510249 0.556535
vt 0.510249 0.531429
vt 0.696127 0.421487
vt 0.510249 0.531429
vt 0.672249 0.413729
vt 0.324372 0.421487
vt 0.348249 0.413729
vt 0.395371 0.202975
vt 0.410128 0.223286
vt 0.625128 0.202975
vt 0.610371 0.223286
vt 0.324372 0.421487
vt 0.395371 0.202975
vt 0.410128 0.223286
vt 0.348249 0.413729
vt 0.625128 0.202975
vt 0.610371 0.223286
vt 0.696127 0.421487
vt 0.672250 0.413729
vt 0.696127 0.421487
vt 0.672250 0.413729
vt 0.395371 0.202975
vt 0.410128 0.223286
vt 0.625128 0.202975
vt 0.610371 0.223286
vt 0.510249 0.518763
vt 0.360296 0.409815
vt 0.417573 0.233533
vt 0.602926 0.233533
vt 0.660203 0.409815
vt 0.660203 0.409815
vt 0.510249 0.518763
vt 0.360295 0.409814
vt 0.417573 0.233533
vt 0.602926 0.233533
vt 0.360296 0.409815
vt 0.417573 0.233533
vt 0.660203 0.409815
vt 0.360296 0.409814
vt 0.417573 0.233533
vt 0.602926 0.233533
vt 0.660203 0.409814
vt 0.360296 0.409814
vt 0.417573 0.233533
vt 0.602926 0.233533
vt 0.360295 0.409814
vt 0.417572 0.233533
vt 0.602926 0.233533
vt 0.660203 0.409815
vt 0.510249 0.518762
vt 0.417573 0.233533
vt 0.602926 0.233533
vt 0.660203 0.409815
vt 0.360296 0.409815
vt 0.660203 0.409815
vt 0.510249 0.518763
vt 0.360296 0.409815
vt 0.417573 0.233533
vt 0.602926 0.233533
vt 0.360295 0.409815
vt 0.417573 0.233533
vt 0.602926 0.233533
vt 0.660203 0.409815
vt 0.510249 0.518763
vt 0.660203 0.409815
vt 0.510249 0.518763
vt 0.360295 0.409815
vt 0.417573 0.233533
vt 0.360296 0.409815
vt 0.417573 0.233533
vt 0.660203 0.409815
vt 0.660203 0.409815
vt 0.417573 0.233533
vt 0.602926 0.233533
s 0
usemtl MatGeneral
f 1/1/1 6/2/1 22/3/1 21/4/1
f 6/2/1 7/5/1 23/6/1 22/3/1
f 7/5/1 3/7/1 24/8/1 23/6/1
f 3/7/1 2/9/1 25/10/1 24/8/1
f 2/9/1 1/1/1 21/4/1 25/10/1
f 4/11/2 18/12/2 27/13/2 26/14/2
f 18/12/2 17/15/2 28/16/2 27/13/2
f 17/15/2 2/17/2 29/18/2 28/16/2
f 2/17/2 3/19/2 30/20/2 29/18/2
f 3/19/2 4/11/2 26/14/2 30/20/2
f 17/12/3 5/21/3 32/22/3 31/13/3
f 5/21/3 14/23/3 33/24/3 32/22/3
f 14/23/3 1/7/3 34/8/3 33/24/3
f 1/7/3 2/25/3 35/26/3 34/8/3
f 2/25/3 17/12/3 31/13/3 35/26/3
f 14/27/4 16/12/4 37/28/4 36/29/4
f 16/12/4 12/30/4 38/31/4 37/28/4
f 12/30/4 6/32/4 39/33/4 38/31/4
f 6/32/4 1/34/4 40/35/4 39/33/4
f 1/34/4 14/27/4 36/29/4 40/35/4
f 12/36/5 13/12/5 42/13/5 41/37/5
f 13/12/5 8/38/5 43/39/5 42/13/5
f 8/38/5 7/40/5 44/41/5 43/39/5
f 7/40/5 6/42/5 45/43/5 44/41/5
f 6/42/5 12/36/5 41/37/5 45/43/5
f 8/44/6 19/45/6 47/46/6 46/47/6
f 19/45/6 4/48/6 48/49/6 47/46/6
f 4/48/6 3/50/6 49/51/6 48/49/6
f 3/50/6 7/52/6 50/53/6 49/51/6
f 7/52/6 8/44/6 46/47/6 50/53/6
f 9/54/7 20/55/7 52/56/7 51/57/7
f 20/55/7 11/58/7 53/59/7 52/56/7
f 11/58/7 10/12/7 54/13/7 53/59/7
f 10/12/7 15/60/7 55/61/7 54/13/7
f 15/60/7 9/54/7 51/57/7 55/61/7
f 13/62/8 12/1/8 57/63/8 56/64/8
f 12/1/8 16/65/8 58/66/8 57/63/8
f 16/65/8 15/67/8 59/68/8 58/66/8
f 15/67/8 10/69/8 60/70/8 59/68/8
f 10/69/8 13/62/8 56/64/8 60/70/8
f 16/71/9 14/72/9 62/73/9 61/74/9
f 14/72/9 5/48/9 63/49/9 62/73/9
f 5/48/9 9/75/9 64/76/9 63/49/9
f 9/75/9 15/77/9 65/78/9 64/76/9
f 15/77/9 16/71/9 61/74/9 65/78/9
f 5/79/10 17/1/10 67/80/10 66/81/10
f 17/1/10 18/82/10 68/83/10 67/80/10
f 18/82/10 20/84/10 69/85/10 68/83/10
f 20/84/10 9/86/10 70/87/10 69/85/10
f 9/86/10 5/79/10 66/81/10 70/87/10
f 18/88/11 4/89/11 72/90/11 71/91/11
f 4/89/11 19/92/11 73/93/11 72/90/11
f 19/92/11 11/94/11 74/95/11 73/93/11
f 11/94/11 20/12/11 75/13/11 74/95/11
f 20/12/11 18/88/11 71/91/11 75/13/11
f 19/96/12 8/12/12 77/13/12 76/97/12
f 8/12/12 13/2/12 78/3/12 77/13/12
f 13/2/12 10/98/12 79/99/12 78/3/12
f 10/98/12 11/100/12 80/101/12 79/99/12
f 11/100/12 19/96/12 76/97/12 80/101/12
f 81/102/1 82/103/1 83/104/1 84/105/1 85/106/1
f 22/3/13 82/103/13 81/102/13 21/4/13
f 23/6/14 83/104/14 82/103/14 22/3/14
f 24/8/15 84/105/15 83/104/15 23/6/15
f 25/10/16 85/106/16 84/105/16 24/8/16
f 21/4/17 81/102/17 85/106/17 25/10/17
f 86/107/2 87/108/2 88/109/2 89/110/2 90/111/2
f 27/13/18 87/108/18 86/107/18 26/14/18
f 28/16/19 88/109/19 87/108/19 27/13/19
f 29/18/20 89/110/20 88/109/20 28/16/20
f 30/20/21 90/111/21 89/110/21 29/18/21
f 26/14/22 86/107/22 90/111/22 30/20/22
f 91/108/3 92/112/3 93/113/3 94/105/3 95/106/3
f 32/22/23 92/112/23 91/108/23 31/13/23
f 33/24/24 93/113/24 92/112/24 32/22/24
f 34/8/25 94/105/25 93/113/25 33/24/25
f 35/26/26 95/106/26 94/105/26 34/8/26
f 31/13/27 91/108/27 95/106/27 35/26/27
f 96/114/4 97/108/4 98/115/4 99/116/4 100/117/4
f 37/28/28 97/108/28 96/114/28 36/29/28
f 38/31/29 98/115/29 97/108/29 37/28/29
f 39/33/30 99/116/30 98/115/30 38/31/30
f 40/35/31 100/117/31 99/116/31 39/33/31
f 36/29/32 96/114/32 100/117/32 40/35/32
f 101/118/5 102/108/5 103/119/5 104/120/5 105/121/5
f 42/13/33 102/108/33 101/118/33 41/37/33
f 43/39/34 103/119/34 102/108/34 42/13/34
f 44/41/35 104/120/35 103/119/35 43/39/35
f 45/43/36 105/121/36 104/120/36 44/41/36
f 41/37/37 101/118/37 105/121/37 45/43/37
f 106/122/6 107/123/6 108/124/6 109/125/6 110/126/6
f 47/46/38 107/123/38 106/122/38 46/47/38
f 48/49/39 108/124/39 107/123/39 47/46/39
f 49/51/40 109/125/40 108/124/40 48/49/40
f 50/53/41 110/126/41 109/125/41 49/51/41
f 46/47/42 106/122/42 110/126/42 50/53/42
f 111/127/7 112/128/7 113/129/7 114/108/7 115/130/7
f 52/56/43 112/128/43 111/127/43 51/57/43
f 53/59/44 113/129/44 112/128/44 52/56/44
f 54/13/45 114/108/45 113/129/45 53/59/45
f 55/61/46 115/130/46 114/108/46 54/13/46
f 51/57/47 111/127/47 115/130/47 55/61/47
f 116/131/8 117/132/8 118/133/8 119/134/8 120/135/8
f 57/63/48 117/132/48 116/131/48 56/64/48
f 58/66/49 118/133/49 117/132/49 57/63/49
f 59/68/50 119/134/50 118/133/50 58/66/50
f 60/70/51 120/135/51 119/134/51 59/68/51
f 56/64/52 116/131/52 120/135/52 60/70/52
f 121/136/9 122/137/9 123/138/9 124/139/9 125/140/9
f 62/73/53 122/137/53 121/136/53 61/74/53
f 63/49/54 123/138/54 122/137/54 62/73/54
f 64/76/55 124/139/55 123/138/55 63/49/55
f 65/78/56 125/140/56 124/139/56 64/76/56
f 61/74/57 121/136/57 125/140/57 65/78/57
f 126/141/10 127/142/10 128/143/10 129/144/10 130/135/10
f 67/80/58 127/142/58 126/141/58 66/81/58
f 68/83/59 128/143/59 127/142/59 67/80/59
f 69/85/60 129/144/60 128/143/60 68/83/60
f 70/87/61 130/135/61 129/144/61 69/85/61
f 66/81/62 126/141/62 130/135/62 70/87/62
f 131/145/11 132/146/11 133/128/11 134/147/11 135/108/11
f 72/90/63 132/146/63 131/145/63 71/91/63
f 73/93/64 133/128/64 132/146/64 72/90/64
f 74/95/65 134/147/65 133/128/65 73/93/65
f 75/13/66 135/108/66 134/147/66 74/95/66
f 71/91/67 131/145/67 135/108/67 75/13/67
f 136/148/12 137/108/12 138/103/12 139/149/12 140/150/12
f 77/13/68 137/108/68 136/148/68 76/97/68
f 78/3/69 138/103/69 137/108/69 77/13/69
f 79/99/70 139/149/70 138/103/70 78/3/70
f 80/101/71 140/150/71 139/149/71 79/99/71
f 76/97/72 136/148/72 140/150/72 80/101/72
