# Blender 4.5.4 LTS
# www.blender.org
mtllib D20_Simple.mtl
o D20_Simple
v 0.000000 -1.500000 0.000000
v 1.085400 -0.670823 0.788580
v -0.414577 -0.670823 1.275960
v -1.341637 -0.670823 0.000000
v -0.414577 -0.670823 -1.275960
v 1.085400 -0.670823 -0.788580
v 0.414577 0.670823 1.275960
v -1.085400 0.670823 0.788580
v -1.085400 0.670823 -0.788580
v 0.414577 0.670823 -1.275960
v 1.341637 0.670823 0.000000
v 0.000000 1.500000 0.000000
vn 0.1876 -0.7947 0.5774
vn 0.6071 -0.7947 -0.0000
vn -0.4911 -0.7947 0.3568
vn -0.4911 -0.7947 -0.3568
vn 0.1876 -0.7947 -0.5774
vn 0.9822 -0.1876 -0.0000
vn 0.3035 -0.1876 0.9342
vn -0.7946 -0.1876 0.5774
vn -0.7946 -0.1876 -0.5774
vn 0.3035 -0.1876 -0.9342
vn 0.7946 0.1876 0.5774
vn -0.3035 0.1876 0.9342
vn -0.9822 0.1876 -0.0000
vn -0.3035 0.1876 -0.9342
vn 0.7946 0.1876 -0.5774
vn 0.4911 0.7947 0.3568
vn -0.1876 0.7947 0.5774
vn -0.6071 0.7947 -0.0000
vn -0.1876 0.7947 -0.5774
vn 0.4911 0.7947 -0.3568
vt 0.763542 0.409764
vt 0.534346 0.012779
vt 0.992739 0.012779
vt 0.763542 0.409764
vt 0.534346 0.012779
vt 0.763542 0.409761
vt 0.763542 0.409761
vt 0.763540 0.409761
vt 0.534343 0.012779
s 0
usemtl MatGeneral
f 1/1/1 2/2/1 3/3/1
f 2/3/2 1/1/2 6/2/2
f 1/1/3 3/2/3 4/3/3
f 1/1/4 4/2/4 5/3/4
f 1/4/5 5/5/5 6/3/5
f 2/2/6 6/3/6 11/6/6
f 3/2/7 2/3/7 7/6/7
f 4/2/8 3/3/8 8/6/8
f 5/2/9 4/3/9 9/6/9
f 6/2/10 5/3/10 10/6/10
f 2/7/11 11/2/11 7/3/11
f 3/8/12 7/9/12 8/3/12
f 4/6/13 8/2/13 9/3/13
f 5/6/14 9/2/14 10/3/14
f 6/6/15 10/5/15 11/3/15
f 7/2/16 11/3/16 12/1/16
f 8/9/17 7/3/17 12/1/17
f 9/2/18 8/3/18 12/1/18
f 10/2/19 9/3/19 12/1/19
f 11/2/20 10/3/20 12/1/20
