# Blender 4.5.4 LTS
# www.blender.org
mtllib D20Complex.mtl
o D20Complex
v 0.000000 -1.500000 0.000000
v 1.085400 -0.670823 0.788580
v -0.414577 -0.670823 1.275960
v -1.341637 -0.670823 0.000000
v -0.414577 -0.670823 -1.275960
v 1.085400 -0.670823 -0.788580
v 0.414577 0.670823 1.275960
v -1.085400 0.670823 0.788580
v -1.085400 0.670823 -0.788580
v 0.414577 0.670823 -1.275960
v 1.341637 0.670823 0.000000
v 0.000000 1.500000 0.000000
v 0.044202 -1.390728 0.136037
v 0.915045 -0.725458 0.768733
v -0.288424 -0.725459 1.159770
v 1.013881 -0.725458 0.632696
v 0.143039 -1.390727 0.000000
v 1.013881 -0.725458 -0.632696
v -0.115719 -1.390728 0.084075
v -0.448345 -0.725458 1.107810
v -1.192149 -0.725458 0.084075
v -0.115719 -1.390728 -0.084075
v -1.192149 -0.725458 -0.084075
v -0.448345 -0.725458 -1.107810
v 0.044202 -1.390728 -0.136037
v -0.288424 -0.725458 -1.159770
v 0.915045 -0.725459 -0.768733
v 1.102284 -0.582420 0.632697
v 1.102284 -0.582420 -0.632697
v 1.307869 0.494015 0.000000
v -0.261108 -0.582420 1.243846
v 0.942362 -0.582420 0.852808
v 0.404144 0.494016 1.243846
v -1.263669 -0.582420 0.136035
v -0.519864 -0.582420 1.159771
v -1.058083 0.494017 0.768733
v -0.519864 -0.582420 -1.159771
v -1.263669 -0.582420 -0.136035
v -1.058083 0.494017 -0.768733
v 0.942362 -0.582420 -0.852808
v -0.261108 -0.582420 -1.243846
v 0.404144 0.494016 -1.243846
v 1.058083 -0.494017 0.768733
v 1.263669 0.582420 0.136035
v 0.519864 0.582420 1.159771
v -0.404144 -0.494016 1.243846
v 0.261108 0.582420 1.243846
v -0.942362 0.582420 0.852808
v -1.307869 -0.494015 0.000000
v -1.102284 0.582420 0.632697
v -1.102284 0.582420 -0.632697
v -0.404144 -0.494016 -1.243846
v -0.942362 0.582420 -0.852808
v 0.261108 0.582420 -1.243846
v 1.058083 -0.494017 -0.768733
v 0.519864 0.582420 -1.159771
v 1.263669 0.582420 -0.136035
v 0.448345 0.725458 1.107810
v 1.192149 0.725458 0.084075
v 0.115719 1.390728 0.084075
v -0.915045 0.725458 0.768733
v 0.288424 0.725459 1.159770
v -0.044202 1.390728 0.136037
v -1.013881 0.725458 -0.632696
v -1.013881 0.725458 0.632696
v -0.143039 1.390727 0.000000
v 0.288424 0.725458 -1.159770
v -0.915045 0.725459 -0.768733
v -0.044202 1.390728 -0.136037
v 1.192149 0.725458 -0.084075
v 0.448345 0.725458 -1.107810
v 0.115719 1.390728 -0.084075
v 0.032946 -1.343049 0.101395
v 0.903789 -0.677779 0.734092
v -0.299680 -0.677779 1.125129
v 0.977457 -0.677779 0.632696
v 0.106615 -1.343048 0.000000
v 0.977457 -0.677779 -0.632696
v -0.086252 -1.343049 0.062666
v -0.418878 -0.677779 1.086401
v -1.162682 -0.677779 0.062666
v -0.086252 -1.343049 -0.062666
v -1.162682 -0.677779 -0.062666
v -0.418878 -0.677779 -1.086401
v 0.032946 -1.343049 -0.101395
v -0.299680 -0.677779 -1.125129
v 0.903789 -0.677779 -0.734092
v 1.043349 -0.571165 0.632697
v 1.043349 -0.571165 -0.632697
v 1.248935 0.505271 0.000000
v -0.279320 -0.571165 1.187796
v 0.924150 -0.571165 0.796758
v 0.385932 0.505271 1.187796
v -1.215990 -0.571165 0.101393
v -0.472185 -0.571165 1.125130
v -1.010404 0.505272 0.734092
v -0.472185 -0.571165 -1.125130
v -1.215990 -0.571165 -0.101393
v -1.010404 0.505272 -0.734092
v 0.924150 -0.571165 -0.796758
v -0.279320 -0.571165 -1.187796
v 0.385932 0.505271 -1.187796
v 1.010404 -0.505272 0.734092
v 1.215990 0.571165 0.101393
v 0.472185 0.571165 1.125130
v -0.385932 -0.505271 1.187796
v 0.279320 0.571165 1.187796
v -0.924150 0.571165 0.796758
v -1.248935 -0.505271 0.000000
v -1.043349 0.571165 0.632697
v -1.043349 0.571165 -0.632697
v -0.385932 -0.505271 -1.187796
v -0.924150 0.571165 -0.796758
v 0.279320 0.571165 -1.187796
v 1.010404 -0.505272 -0.734092
v 0.472185 0.571165 -1.125130
v 1.215990 0.571165 -0.101393
v 0.418878 0.677779 1.086401
v 1.162682 0.677779 0.062666
v 0.086252 1.343049 0.062666
v -0.903789 0.677779 0.734092
v 0.299680 0.677779 1.125129
v -0.032946 1.343049 0.101395
v -0.977457 0.677779 -0.632696
v -0.977457 0.677779 0.632696
v -0.106615 1.343048 0.000000
v 0.299680 0.677779 -1.125129
v -0.903789 0.677779 -0.734092
v -0.032946 1.343049 -0.101395
v 1.162682 0.677779 -0.062666
v 0.418878 0.677779 -1.086401
v 0.086252 1.343049 -0.062666
vn 0.1876 -0.7947 0.5774
vn 0.6071 -0.7947 -0.0000
vn -0.4911 -0.7947 0.3568
vn -0.4911 -0.7947 -0.3568
vn 0.1876 -0.7947 -0.5774
vn 0.9822 -0.1876 -0.0000
vn 0.3035 -0.1876 0.9342
vn -0.7946 -0.1876 0.5774
vn -0.7946 -0.1876 -0.5774
vn 0.3035 -0.1876 -0.9342
vn 0.7946 0.1876 0.5774
vn -0.3035 0.1876 0.9342
vn -0.9822 0.1876 -0.0000
vn -0.3035 0.1876 -0.9342
vn 0.7946 0.1876 -0.5774
vn 0.4911 0.7947 0.3568
vn -0.1876 0.7947 0.5774
vn -0.6071 0.7947 -0.0000
vn -0.1876 0.7947 -0.5774
vn 0.4911 0.7947 -0.3568
vn -0.7009 0.3035 0.6455
vn -0.2456 -0.6071 -0.7558
vn 0.9464 0.3035 0.1103
vn 0.3973 0.3035 -0.8660
vn 0.3973 0.3035 0.8660
vn -0.7947 -0.6071 -0.0000
vn -0.8305 0.3035 -0.4671
vn 0.6429 -0.6071 -0.4671
vn 0.1876 0.3035 0.9342
vn 0.1876 0.3035 -0.9342
vn 0.6429 -0.6071 0.4671
vn -0.8305 0.3035 0.4671
vn 0.9464 0.3035 -0.1103
vn -0.2456 -0.6071 0.7558
vn -0.7009 0.3035 -0.6455
vn 0.1876 0.9822 -0.0000
vn -0.0938 -0.4911 0.8660
vn -0.0938 -0.4911 -0.8660
vn 0.0580 0.9822 0.1784
vn -0.8526 -0.4911 0.1784
vn 0.7947 -0.4911 -0.3568
vn -0.1518 0.9822 0.1103
vn -0.4332 -0.4911 -0.7558
vn 0.5849 -0.4911 0.6455
vn -0.1518 0.9822 -0.1103
vn 0.5849 -0.4911 -0.6455
vn -0.4332 -0.4911 0.7558
vn 0.0580 0.9822 -0.1784
vn 0.7947 -0.4911 0.3568
vn -0.8526 -0.4911 -0.1784
vn -0.5849 0.4911 0.6455
vn 0.1518 -0.9822 0.1103
vn 0.4332 0.4911 -0.7558
vn -0.7947 0.4911 -0.3568
vn -0.0580 -0.9822 0.1784
vn 0.8526 0.4911 0.1784
vn 0.0938 0.4911 -0.8660
vn -0.1876 -0.9822 -0.0000
vn 0.0938 0.4911 0.8660
vn 0.8526 0.4911 -0.1784
vn -0.0580 -0.9822 -0.1784
vn -0.7947 0.4911 0.3568
vn 0.4332 0.4911 0.7558
vn 0.1518 -0.9822 -0.1103
vn -0.5849 0.4911 -0.6455
vn -0.6429 0.6071 -0.4671
vn -0.1876 -0.3035 0.9342
vn 0.8305 -0.3035 -0.4671
vn 0.2456 0.6071 -0.7558
vn -0.9464 -0.3035 0.1103
vn 0.7009 -0.3035 0.6455
vn 0.7947 0.6071 -0.0000
vn -0.3973 -0.3035 -0.8660
vn -0.3973 -0.3035 0.8660
vn 0.2456 0.6071 0.7558
vn 0.7009 -0.3035 -0.6455
vn -0.9464 -0.3035 -0.1103
vn -0.6429 0.6071 0.4671
vn 0.8305 -0.3035 0.4671
vn -0.1876 -0.3035 -0.9342
vt 0.763228 0.411689
vt 0.532699 0.012397
vt 0.578269 0.038707
vt 0.763228 0.359069
vt 0.993756 0.012397
vt 0.948187 0.038707
vt 0.763228 0.359069
vt 0.948186 0.038707
vt 0.578269 0.038707
vt 0.578268 0.038707
vt 0.763228 0.359069
vt 0.948187 0.038707
vt 0.578269 0.038707
vt 0.763228 0.359069
vt 0.948187 0.038707
vt 0.763228 0.411689
vt 0.532699 0.012397
vt 0.578269 0.038707
vt 0.763228 0.359069
vt 0.948187 0.038706
vt 0.578269 0.038706
vt 0.763228 0.411687
vt 0.763228 0.359067
vt 0.948187 0.038706
vt 0.578268 0.038706
vt 0.763228 0.359067
vt 0.948187 0.038706
vt 0.578268 0.038706
vt 0.763228 0.359067
vt 0.948187 0.038706
vt 0.578268 0.038706
vt 0.763228 0.359067
vt 0.578269 0.038706
vt 0.763228 0.359067
vt 0.763228 0.411687
vt 0.763228 0.359067
vt 0.948187 0.038706
vt 0.763225 0.411687
vt 0.532696 0.012397
vt 0.578266 0.038706
vt 0.763225 0.359067
vt 0.948186 0.038706
vt 0.578269 0.038706
vt 0.763228 0.359067
vt 0.578268 0.038706
vt 0.948187 0.038706
vt 0.578268 0.038707
vt 0.763228 0.359069
vt 0.948186 0.038707
vt 0.578267 0.038707
vt 0.763228 0.359069
vt 0.763228 0.359069
vt 0.948187 0.038707
vt 0.578269 0.038707
vt 0.763228 0.359069
vt 0.763228 0.341930
vt 0.593111 0.047276
vt 0.933344 0.047276
vt 0.933344 0.047276
vt 0.763228 0.341930
vt 0.593111 0.047276
vt 0.763228 0.341930
vt 0.593111 0.047276
vt 0.933344 0.047276
vt 0.763228 0.341930
vt 0.593111 0.047276
vt 0.933344 0.047276
vt 0.763228 0.341930
vt 0.593111 0.047276
vt 0.933344 0.047276
vt 0.593111 0.047276
vt 0.933344 0.047276
vt 0.763228 0.341928
vt 0.593111 0.047276
vt 0.933344 0.047276
vt 0.763228 0.341928
vt 0.593111 0.047276
vt 0.933344 0.047276
vt 0.763228 0.341928
vt 0.593111 0.047276
vt 0.933344 0.047276
vt 0.763228 0.341928
vt 0.593111 0.047276
vt 0.763228 0.341928
vt 0.763228 0.341928
vt 0.593111 0.047276
vt 0.933344 0.047276
vt 0.763225 0.341928
vt 0.593109 0.047276
vt 0.933344 0.047276
vt 0.763228 0.341928
vt 0.763228 0.341928
vt 0.593111 0.047276
vt 0.593111 0.047276
vt 0.933344 0.047276
vt 0.593111 0.047276
vt 0.763228 0.341930
vt 0.593109 0.047276
vt 0.933344 0.047276
vt 0.763228 0.341930
vt 0.593111 0.047276
vt 0.593111 0.047276
vt 0.933344 0.047276
vt 0.763228 0.341930
s 0
usemtl MatGeneral
f 1/1/1 2/2/1 14/3/1 13/4/1
f 2/2/1 3/5/1 15/6/1 14/3/1
f 3/5/1 1/1/1 13/4/1 15/6/1
f 2/5/2 1/1/2 17/7/2 16/8/2
f 1/1/2 6/2/2 18/9/2 17/7/2
f 6/2/2 2/5/2 16/8/2 18/9/2
f 1/1/3 3/2/3 20/10/3 19/11/3
f 3/2/3 4/5/3 21/12/3 20/10/3
f 4/5/3 1/1/3 19/11/3 21/12/3
f 1/1/4 4/2/4 23/13/4 22/14/4
f 4/2/4 5/5/4 24/15/4 23/13/4
f 5/5/4 1/1/4 22/14/4 24/15/4
f 1/16/5 5/17/5 26/18/5 25/19/5
f 5/17/5 6/5/5 27/6/5 26/18/5
f 6/5/5 1/16/5 25/19/5 27/6/5
f 2/2/6 6/5/6 29/20/6 28/21/6
f 6/5/6 11/22/6 30/23/6 29/20/6
f 11/22/6 2/2/6 28/21/6 30/23/6
f 3/2/7 2/5/7 32/24/7 31/25/7
f 2/5/7 7/22/7 33/26/7 32/24/7
f 7/22/7 3/2/7 31/25/7 33/26/7
f 4/2/8 3/5/8 35/27/8 34/28/8
f 3/5/8 8/22/8 36/29/8 35/27/8
f 8/22/8 4/2/8 34/28/8 36/29/8
f 5/2/9 4/5/9 38/30/9 37/31/9
f 4/5/9 9/22/9 39/32/9 38/30/9
f 9/22/9 5/2/9 37/31/9 39/32/9
f 6/2/10 5/5/10 41/27/10 40/33/10
f 5/5/10 10/22/10 42/34/10 41/27/10
f 10/22/10 6/2/10 40/33/10 42/34/10
f 2/35/11 11/2/11 44/28/11 43/36/11
f 11/2/11 7/5/11 45/37/11 44/28/11
f 7/5/11 2/35/11 43/36/11 45/37/11
f 3/38/12 7/39/12 47/40/12 46/41/12
f 7/39/12 8/5/12 48/42/12 47/40/12
f 8/5/12 3/38/12 46/41/12 48/42/12
f 4/22/13 8/2/13 50/21/13 49/23/13
f 8/2/13 9/5/13 51/20/13 50/21/13
f 9/5/13 4/22/13 49/23/13 51/20/13
f 5/22/14 9/2/14 53/43/14 52/44/14
f 9/2/14 10/5/14 54/27/14 53/43/14
f 10/5/14 5/22/14 52/44/14 54/27/14
f 6/22/15 10/17/15 56/45/15 55/36/15
f 10/17/15 11/5/15 57/46/15 56/45/15
f 11/5/15 6/22/15 55/36/15 57/46/15
f 7/2/16 11/5/16 59/12/16 58/47/16
f 11/5/16 12/1/16 60/48/16 59/12/16
f 12/1/16 7/2/16 58/47/16 60/48/16
f 8/39/17 7/5/17 62/49/17 61/50/17
f 7/5/17 12/1/17 63/51/17 62/49/17
f 12/1/17 8/39/17 61/50/17 63/51/17
f 9/2/18 8/5/18 65/8/18 64/9/18
f 8/5/18 12/1/18 66/7/18 65/8/18
f 12/1/18 9/2/18 64/9/18 66/7/18
f 10/2/19 9/5/19 68/6/19 67/3/19
f 9/5/19 12/1/19 69/52/19 68/6/19
f 12/1/19 10/2/19 67/3/19 69/52/19
f 11/2/20 10/5/20 71/53/20 70/54/20
f 10/5/20 12/1/20 72/55/20 71/53/20
f 12/1/20 11/2/20 70/54/20 72/55/20
f 73/56/1 74/57/1 75/58/1
f 14/3/21 74/57/21 73/56/21 13/4/21
f 15/6/22 75/58/22 74/57/22 14/3/22
f 13/4/23 73/56/23 75/58/23 15/6/23
f 76/59/2 77/60/2 78/61/2
f 17/7/24 77/60/24 76/59/24 16/8/24
f 18/9/25 78/61/25 77/60/25 17/7/25
f 16/8/26 76/59/26 78/61/26 18/9/26
f 79/62/3 80/63/3 81/64/3
f 20/10/27 80/63/27 79/62/27 19/11/27
f 21/12/28 81/64/28 80/63/28 20/10/28
f 19/11/29 79/62/29 81/64/29 21/12/29
f 82/65/4 83/66/4 84/67/4
f 23/13/30 83/66/30 82/65/30 22/14/30
f 24/15/31 84/67/31 83/66/31 23/13/31
f 22/14/32 82/65/32 84/67/32 24/15/32
f 85/68/5 86/69/5 87/70/5
f 26/18/33 86/69/33 85/68/33 25/19/33
f 27/6/34 87/70/34 86/69/34 26/18/34
f 25/19/35 85/68/35 87/70/35 27/6/35
f 88/71/6 89/72/6 90/73/6
f 29/20/36 89/72/36 88/71/36 28/21/36
f 30/23/37 90/73/37 89/72/37 29/20/37
f 28/21/38 88/71/38 90/73/38 30/23/38
f 91/74/7 92/75/7 93/76/7
f 32/24/39 92/75/39 91/74/39 31/25/39
f 33/26/40 93/76/40 92/75/40 32/24/40
f 31/25/41 91/74/41 93/76/41 33/26/41
f 94/77/8 95/78/8 96/79/8
f 35/27/42 95/78/42 94/77/42 34/28/42
f 36/29/43 96/79/43 95/78/43 35/27/43
f 34/28/44 94/77/44 96/79/44 36/29/44
f 97/80/9 98/81/9 99/82/9
f 38/30/45 98/81/45 97/80/45 37/31/45
f 39/32/46 99/82/46 98/81/46 38/30/46
f 37/31/47 97/80/47 99/82/47 39/32/47
f 100/83/10 101/78/10 102/84/10
f 41/27/48 101/78/48 100/83/48 40/33/48
f 42/34/49 102/84/49 101/78/49 41/27/49
f 40/33/50 100/83/50 102/84/50 42/34/50
f 103/85/11 104/86/11 105/87/11
f 44/28/51 104/86/51 103/85/51 43/36/51
f 45/37/52 105/87/52 104/86/52 44/28/52
f 43/36/53 103/85/53 105/87/53 45/37/53
f 106/88/12 107/89/12 108/90/12
f 47/40/54 107/89/54 106/88/54 46/41/54
f 48/42/55 108/90/55 107/89/55 47/40/55
f 46/41/56 106/88/56 108/90/56 48/42/56
f 109/91/13 110/71/13 111/72/13
f 50/21/57 110/71/57 109/91/57 49/23/57
f 51/20/58 111/72/58 110/71/58 50/21/58
f 49/23/59 109/91/59 111/72/59 51/20/59
f 112/92/14 113/93/14 114/78/14
f 53/43/60 113/93/60 112/92/60 52/44/60
f 54/27/61 114/78/61 113/93/61 53/43/61
f 52/44/62 112/92/62 114/78/62 54/27/62
f 115/85/15 116/94/15 117/95/15
f 56/45/63 116/94/63 115/85/63 55/36/63
f 57/46/64 117/95/64 116/94/64 56/45/64
f 55/36/65 115/85/65 117/95/65 57/46/65
f 118/96/16 119/64/16 120/97/16
f 59/12/66 119/64/66 118/96/66 58/47/66
f 60/48/67 120/97/67 119/64/67 59/12/67
f 58/47/68 118/96/68 120/97/68 60/48/68
f 121/98/17 122/99/17 123/100/17
f 62/49/69 122/99/69 121/98/69 61/50/69
f 63/51/70 123/100/70 122/99/70 62/49/70
f 61/50/71 121/98/71 123/100/71 63/51/71
f 124/61/18 125/59/18 126/60/18
f 65/8/72 125/59/72 124/61/72 64/9/72
f 66/7/73 126/60/73 125/59/73 65/8/73
f 64/9/74 124/61/74 126/60/74 66/7/74
f 127/101/19 128/70/19 129/56/19
f 68/6/75 128/70/75 127/101/75 67/3/75
f 69/52/76 129/56/76 128/70/76 68/6/76
f 67/3/77 127/101/77 129/56/77 69/52/77
f 130/102/20 131/103/20 132/104/20
f 71/53/78 131/103/78 130/102/78 70/54/78
f 72/55/79 132/104/79 131/103/79 71/53/79
f 70/54/80 130/102/80 132/104/80 72/55/80
