# Blender 4.5.4 LTS
# www.blender.org
mtllib D4_Simple.mtl
o D4_Simple
v -1.732051 -0.866032 0.000001
v 0.866025 -0.866033 1.500001
v 0.866026 -0.866030 -1.500000
v 0.000001 1.583456 -0.000002
vn 0.9428 0.3333 -0.0000
vn -0.4714 0.3333 0.8165
vn -0.0000 -1.0000 -0.0000
vn -0.4714 0.3333 -0.8165
vt 0.023399 0.116783
vt 0.972845 0.116783
vt 0.498123 0.939027
vt 0.024255 0.115305
vt 0.973697 0.118262
vt 0.496414 0.939024
vt 0.972845 0.116782
vt 0.498122 0.939027
vt 0.023399 0.116782
vt 0.972846 0.116780
vt 0.498121 0.939026
vt 0.023398 0.116781
s 0
usemtl MatGeneral
f 2/1/1 3/2/1 4/3/1
f 1/4/2 2/5/2 4/6/2
f 2/7/3 1/8/3 3/9/3
f 1/10/4 4/11/4 3/12/4
