# Blender 4.5.4 LTS
# www.blender.org
mtllib D4Complex.mtl
o D4Complex
v -1.732051 -0.866032 0.000001
v 0.866025 -0.866033 1.500001
v 0.866026 -0.866030 -1.500000
v 0.000001 1.583456 -0.000002
v 0.816025 -0.724612 1.240193
v 0.816025 -0.724609 -1.240193
v 0.100000 1.300613 -0.000002
v -1.482051 -0.724611 0.086603
v 0.666025 -0.724612 1.326796
v -0.050000 1.300613 0.086601
v 0.716025 -0.866033 1.240193
v -1.432051 -0.866032 0.000001
v 0.716026 -0.866030 -1.240192
v -1.482051 -0.724611 -0.086602
v -0.049999 1.300613 -0.086604
v 0.666026 -0.724609 -1.326795
v 0.750028 -0.747945 1.240193
v 0.750029 -0.747942 -1.240193
v 0.034004 1.277280 -0.000002
v -1.449053 -0.747945 0.029449
v 0.699023 -0.747945 1.269641
v -0.017001 1.277280 0.029446
v 0.716025 -0.796033 1.240194
v -1.432051 -0.796032 0.000001
v 0.716026 -0.796030 -1.240192
v -1.449052 -0.747944 -0.029447
v -0.017001 1.277280 -0.029450
v 0.699024 -0.747942 -1.269640
vn 0.9428 0.3333 -0.0000
vn -0.4714 0.3333 0.8165
vn -0.0000 -1.0000 -0.0000
vn -0.4714 0.3333 -0.8165
vn -0.3333 0.9428 -0.0000
vn 0.1667 -0.4714 0.8660
vn 0.1667 -0.4714 -0.8660
vn 0.1667 0.9428 -0.2887
vn -0.8333 -0.4714 -0.2887
vn 0.6667 -0.4714 0.5774
vn 0.5000 -0.0000 -0.8660
vn 0.5000 -0.0000 0.8660
vn -1.0000 -0.0000 -0.0000
vn 0.6667 -0.4714 -0.5774
vn -0.8333 -0.4714 0.2887
vn 0.1667 0.9428 0.2887
vt 0.013986 0.538204
vt 0.414829 0.540073
vt 0.379562 0.559847
vt 0.049064 0.558307
vt 0.212799 0.883791
vt 0.212985 0.843916
vt 0.053412 0.560569
vt 0.375194 0.562069
vt 0.213006 0.839433
s 0
usemtl MatGeneral
f 2/1/1 3/2/1 6/3/1 5/4/1
f 3/2/1 4/5/1 7/6/1 6/3/1
f 4/5/1 2/1/1 5/4/1 7/6/1
f 1/1/2 2/2/2 9/3/2 8/4/2
f 2/2/2 4/5/2 10/6/2 9/3/2
f 4/5/2 1/1/2 8/4/2 10/6/2
f 2/2/3 1/5/3 12/6/3 11/3/3
f 1/5/3 3/1/3 13/4/3 12/6/3
f 3/1/3 2/2/3 11/3/3 13/4/3
f 1/2/4 4/5/4 15/6/4 14/3/4
f 4/5/4 3/1/4 16/4/4 15/6/4
f 3/1/4 1/2/4 14/3/4 16/4/4
f 17/7/1 18/8/1 19/9/1
f 6/3/5 18/8/5 17/7/5 5/4/5
f 7/6/6 19/9/6 18/8/6 6/3/6
f 5/4/7 17/7/7 19/9/7 7/6/7
f 20/7/2 21/8/2 22/9/2
f 9/3/8 21/8/8 20/7/8 8/4/8
f 10/6/9 22/9/9 21/8/9 9/3/9
f 8/4/10 20/7/10 22/9/10 10/6/10
f 23/8/3 24/9/3 25/7/3
f 12/6/11 24/9/11 23/8/11 11/3/11
f 13/4/12 25/7/12 24/9/12 12/6/12
f 11/3/13 23/8/13 25/7/13 13/4/13
f 26/8/4 27/9/4 28/7/4
f 15/6/14 27/9/14 26/8/14 14/3/14
f 16/4/15 28/7/15 27/9/15 15/6/15
f 14/3/16 26/8/16 28/7/16 16/4/16
