# Blender 4.5.3 LTS
# www.blender.org
mtllib D4Col.mtl
o D4Collision
v -1.733333 -0.863351 0.000000
v 0.866667 -0.863351 1.500000
v 0.866667 -0.863351 -1.500000
v 0.000000 1.736649 0.000000
vn 0.9487 0.3162 -0.0000
vn 0.4741 -0.3161 -0.8218
vn -0.0000 1.0000 -0.0000
vn 0.4741 -0.3161 0.8218
vt 0.000000 0.000000
vt 0.500000 0.000000
vt 0.250000 0.250000
vt 0.500000 0.500000
vt 1.000000 0.000000
vt 1.000000 0.500000
vt 1.000000 1.000000
s 0
f 2/1/1 3/2/1 4/3/1
f 1/4/2 4/5/2 2/6/2
f 2/6/3 3/7/3 1/4/3
f 1/4/4 3/2/4 4/5/4
