# Blender 4.5.4 LTS
# www.blender.org
mtllib D6_Simple.mtl
o D6_Simple
v -1.000000 -1.000000 1.000000
v -1.000000 1.000000 1.000000
v -1.000000 -1.000000 -1.000000
v -1.000000 1.000000 -1.000000
v 1.000000 -1.000000 1.000000
v 1.000000 1.000000 1.000000
v 1.000000 -1.000000 -1.000000
v 1.000000 1.000000 -1.000000
vn -1.0000 -0.0000 -0.0000
vn -0.0000 -0.0000 -1.0000
vn 1.0000 -0.0000 -0.0000
vn -0.0000 -0.0000 1.0000
vn -0.0000 -1.0000 -0.0000
vn -0.0000 1.0000 -0.0000
vt 0.665660 0.662360
vt 0.665660 0.971978
vt 0.356043 0.971978
vt 0.356043 0.662360
vt 0.356043 0.971978
vt 0.665660 0.971978
s 0
usemtl MatGeneral
f 1/1/1 2/2/1 4/3/1 3/4/1
f 3/1/2 4/2/2 8/3/2 7/4/2
f 7/1/3 8/2/3 6/3/3 5/4/3
f 5/1/4 6/2/4 2/3/4 1/4/4
f 3/5/5 7/4/5 5/1/5 1/6/5
f 8/1/6 4/2/6 2/3/6 6/4/6
