# Blender 4.5.4 LTS
# www.blender.org
mtllib D6Complex.mtl
o D6Complex
v -1.000000 -1.000000 1.000000
v -1.000000 1.000000 1.000000
v -1.000000 -1.000000 -1.000000
v -1.000000 1.000000 -1.000000
v 1.000000 -1.000000 1.000000
v 1.000000 1.000000 1.000000
v 1.000000 -1.000000 -1.000000
v 1.000000 1.000000 -1.000000
v -1.000000 -0.821868 0.821868
v -1.000000 0.821868 0.821868
v -1.000000 0.821868 -0.821868
v -1.000000 -0.821868 -0.821868
v -0.821868 -0.821868 -1.000000
v -0.821868 0.821868 -1.000000
v 0.821868 0.821868 -1.000000
v 0.821868 -0.821868 -1.000000
v 1.000000 -0.821868 -0.821868
v 1.000000 0.821868 -0.821868
v 1.000000 0.821868 0.821868
v 1.000000 -0.821868 0.821868
v 0.821868 -0.821868 1.000000
v 0.821868 0.821868 1.000000
v -0.821868 0.821868 1.000000
v -0.821868 -0.821868 1.000000
v -0.821868 -1.000000 -0.821868
v 0.821868 -1.000000 -0.821868
v 0.821868 -1.000000 0.821868
v -0.821868 -1.000000 0.821868
v 0.821868 1.000000 -0.821868
v -0.821868 1.000000 -0.821868
v -0.821868 1.000000 0.821868
v 0.821868 1.000000 0.821868
v -0.900000 -0.821868 0.821868
v -0.900000 0.821868 0.821868
v -0.900000 0.821868 -0.821868
v -0.900000 -0.821868 -0.821868
v -0.821868 -0.821868 -0.900000
v -0.821868 0.821868 -0.900000
v 0.821868 0.821868 -0.900000
v 0.821868 -0.821868 -0.900000
v 0.900000 -0.821868 -0.821868
v 0.900000 0.821868 -0.821868
v 0.900000 0.821868 0.821868
v 0.900000 -0.821868 0.821868
v 0.821868 -0.821868 0.900000
v 0.821868 0.821868 0.900000
v -0.821868 0.821868 0.900000
v -0.821868 -0.821868 0.900000
v -0.821868 -0.900000 -0.821868
v 0.821868 -0.900000 -0.821868
v 0.821868 -0.900000 0.821868
v -0.821868 -0.900000 0.821868
v 0.821868 0.900000 -0.821868
v -0.821868 0.900000 -0.821868
v -0.821868 0.900000 0.821868
v 0.821868 0.900000 0.821868
vn -1.0000 -0.0000 -0.0000
vn -0.0000 -0.0000 -1.0000
vn 1.0000 -0.0000 -0.0000
vn -0.0000 -0.0000 1.0000
vn -0.0000 -1.0000 -0.0000
vn -0.0000 1.0000 -0.0000
vt 0.667533 0.661558
vt 0.667373 0.972685
vt 0.647728 0.953020
vt 0.647868 0.681203
vt 0.356246 0.972524
vt 0.375911 0.952879
vt 0.356407 0.661397
vt 0.376051 0.681063
vt 0.375911 0.952879
vt 0.356326 0.972605
vt 0.356326 0.661478
vt 0.375981 0.681133
vt 0.375981 0.952950
vt 0.667453 0.661478
vt 0.647798 0.681133
vt 0.667453 0.972605
vt 0.647798 0.952950
vt 0.667453 0.661478
vt 0.667453 0.972605
vt 0.647798 0.952950
vt 0.647798 0.681133
vt 0.356326 0.972605
vt 0.375981 0.952950
vt 0.356326 0.661478
vt 0.375981 0.681133
vt 0.637426 0.691634
vt 0.637296 0.942578
vt 0.386353 0.942448
vt 0.386483 0.691505
vt 0.386418 0.942513
vt 0.386418 0.691569
vt 0.637361 0.691570
vt 0.637361 0.942513
vt 0.637361 0.691570
vt 0.637361 0.942513
vt 0.386418 0.942513
vt 0.386418 0.691570
s 0
usemtl MatGeneral
f 1/1/1 2/2/1 10/3/1 9/4/1
f 2/2/1 4/5/1 11/6/1 10/3/1
f 4/5/1 3/7/1 12/8/1 11/6/1
f 3/7/1 1/1/1 9/4/1 12/8/1
f 3/1/2 4/2/2 14/3/2 13/4/2
f 4/2/2 8/5/2 15/9/2 14/3/2
f 8/5/2 7/7/2 16/8/2 15/9/2
f 7/7/2 3/1/2 13/4/2 16/8/2
f 7/1/3 8/2/3 18/3/3 17/4/3
f 8/2/3 6/5/3 19/9/3 18/3/3
f 6/5/3 5/7/3 20/8/3 19/9/3
f 5/7/3 7/1/3 17/4/3 20/8/3
f 5/1/4 6/2/4 22/3/4 21/4/4
f 6/2/4 2/5/4 23/9/4 22/3/4
f 2/5/4 1/7/4 24/8/4 23/9/4
f 1/7/4 5/1/4 21/4/4 24/8/4
f 3/10/5 7/11/5 26/12/5 25/13/5
f 7/11/5 5/14/5 27/15/5 26/12/5
f 5/14/5 1/16/5 28/17/5 27/15/5
f 1/16/5 3/10/5 25/13/5 28/17/5
f 8/18/6 4/19/6 30/20/6 29/21/6
f 4/19/6 2/22/6 31/23/6 30/20/6
f 2/22/6 6/24/6 32/25/6 31/23/6
f 6/24/6 8/18/6 29/21/6 32/25/6
f 33/26/1 34/27/1 35/28/1 36/29/1
f 10/3/2 34/27/2 33/26/2 9/4/2
f 11/6/5 35/28/5 34/27/5 10/3/5
f 12/8/4 36/29/4 35/28/4 11/6/4
f 9/4/6 33/26/6 36/29/6 12/8/6
f 37/26/2 38/27/2 39/28/2 40/29/2
f 14/3/3 38/27/3 37/26/3 13/4/3
f 15/9/5 39/28/5 38/27/5 14/3/5
f 16/8/1 40/29/1 39/28/1 15/9/1
f 13/4/6 37/26/6 40/29/6 16/8/6
f 41/26/3 42/27/3 43/28/3 44/29/3
f 18/3/4 42/27/4 41/26/4 17/4/4
f 19/9/5 43/28/5 42/27/5 18/3/5
f 20/8/2 44/29/2 43/28/2 19/9/2
f 17/4/6 41/26/6 44/29/6 20/8/6
f 45/26/4 46/27/4 47/28/4 48/29/4
f 22/3/1 46/27/1 45/26/1 21/4/1
f 23/9/5 47/28/5 46/27/5 22/3/5
f 24/8/3 48/29/3 47/28/3 23/9/3
f 21/4/6 45/26/6 48/29/6 24/8/6
f 49/30/5 50/31/5 51/32/5 52/33/5
f 26/12/4 50/31/4 49/30/4 25/13/4
f 27/15/1 51/32/1 50/31/1 26/12/1
f 28/17/2 52/33/2 51/32/2 27/15/2
f 25/13/3 49/30/3 52/33/3 28/17/3
f 53/34/6 54/35/6 55/36/6 56/37/6
f 30/20/4 54/35/4 53/34/4 29/21/4
f 31/23/3 55/36/3 54/35/3 30/20/3
f 32/25/2 56/37/2 55/36/2 31/23/2
f 29/21/1 53/34/1 56/37/1 32/25/1
