# Blender 4.5.4 LTS
# www.blender.org
mtllib D8_Simple.mtl
o D8_Simple
v -1.000000 0.000000 1.000000
v 1.000000 0.000000 1.000000
v -1.000000 0.000000 -1.000000
v 1.000000 0.000000 -1.000000
v 0.000000 -1.414210 0.000000
v 0.000000 1.414210 0.000000
vn -0.0000 -0.5774 0.8165
vn 0.8165 -0.5774 -0.0000
vn -0.0000 -0.5774 -0.8165
vn -0.8165 -0.5774 -0.0000
vn -0.0000 0.5774 -0.8165
vn 0.8165 0.5774 -0.0000
vn -0.0000 0.5774 0.8165
vn -0.8165 0.5774 -0.0000
vt 0.995004 0.523130
vt 0.794496 0.870420
vt 0.593987 0.523130
vt 0.794495 0.870420
vt 0.593987 0.523130
vt 0.995003 0.523129
vt 0.995003 0.523130
vt 0.794496 0.870420
vt 0.593987 0.523130
vt 0.995004 0.523130
s 0
usemtl MatGeneral
f 1/1/1 5/2/1 2/3/1
f 5/4/2 4/5/2 2/6/2
f 4/7/3 5/8/3 3/9/3
f 3/6/4 5/2/4 1/9/4
f 3/7/5 6/8/5 4/9/5
f 6/2/6 2/3/6 4/10/6
f 2/1/7 6/2/7 1/3/7
f 1/7/8 6/8/8 3/9/8
