# Blender 4.5.4 LTS
# www.blender.org
mtllib D8Complex.mtl
o D8Complex
v -1.000000 0.000000 1.000000
v 1.000000 0.000000 1.000000
v -1.000000 0.000000 -1.000000
v 1.000000 0.000000 -1.000000
v 0.000000 -1.414210 0.000000
v 0.000000 1.414210 0.000000
v -0.844115 -0.073485 0.948038
v 0.000000 -1.267241 0.103923
v 0.844115 -0.073485 0.948038
v 0.103923 -1.267241 0.000000
v 0.948038 -0.073485 -0.844115
v 0.948038 -0.073485 0.844115
v 0.844115 -0.073485 -0.948038
v 0.000000 -1.267241 -0.103923
v -0.844115 -0.073485 -0.948038
v -0.948038 -0.073485 -0.844115
v -0.103923 -1.267241 0.000000
v -0.948038 -0.073485 0.844115
v -0.844115 0.073485 -0.948038
v 0.000000 1.267241 -0.103923
v 0.844115 0.073485 -0.948038
v 0.103923 1.267241 0.000000
v 0.948038 0.073485 0.844115
v 0.948038 0.073485 -0.844115
v 0.844115 0.073485 0.948038
v 0.000000 1.267241 0.103923
v -0.844115 0.073485 0.948038
v -0.948038 0.073485 0.844115
v -0.103923 1.267241 0.000000
v -0.948038 0.073485 -0.844115
v -0.844115 -0.033070 0.890884
v 0.000000 -1.226826 0.046768
v 0.844115 -0.033070 0.890884
v 0.046768 -1.226826 0.000000
v 0.890884 -0.033070 -0.844115
v 0.890884 -0.033070 0.844115
v 0.844115 -0.033070 -0.890884
v 0.000000 -1.226826 -0.046768
v -0.844115 -0.033070 -0.890884
v -0.890884 -0.033070 -0.844115
v -0.046768 -1.226826 0.000000
v -0.890884 -0.033070 0.844115
v -0.844115 0.033070 -0.890884
v 0.000000 1.226826 -0.046768
v 0.844115 0.033070 -0.890884
v 0.046768 1.226826 -0.000000
v 0.890884 0.033070 0.844115
v 0.890884 0.033070 -0.844115
v 0.844115 0.033070 0.890884
v 0.000000 1.226826 0.046768
v -0.844115 0.033070 0.890884
v -0.890884 0.033070 0.844115
v -0.046768 1.226826 0.000000
v -0.890884 0.033070 -0.844115
vn -0.0000 -0.5774 0.8165
vn 0.8165 -0.5774 -0.0000
vn -0.0000 -0.5774 -0.8165
vn -0.8165 -0.5774 -0.0000
vn -0.0000 0.5774 -0.8165
vn 0.8165 0.5774 -0.0000
vn -0.0000 0.5774 0.8165
vn -0.8165 0.5774 -0.0000
vn 0.8660 0.4082 0.2887
vn -0.8660 0.4082 0.2887
vn -0.0000 -0.8165 -0.5774
vn 0.2887 0.4082 0.8660
vn -0.5774 -0.8165 -0.0000
vn 0.2887 0.4082 -0.8660
vn -0.8660 0.4082 -0.2887
vn 0.8660 0.4082 -0.2887
vn -0.0000 -0.8165 0.5774
vn -0.2887 0.4082 0.8660
vn -0.2887 0.4082 -0.8660
vn 0.5774 -0.8165 -0.0000
vn 0.8660 -0.4082 -0.2887
vn -0.8660 -0.4082 -0.2887
vn -0.0000 0.8165 0.5774
vn 0.2887 -0.4082 -0.8660
vn -0.5774 0.8165 -0.0000
vn 0.2887 -0.4082 0.8660
vn -0.8660 -0.4082 0.2887
vn 0.8660 -0.4082 0.2887
vn -0.0000 0.8165 -0.5774
vn -0.2887 -0.4082 -0.8660
vn -0.2887 -0.4082 0.8660
vn 0.5774 0.8165 -0.0000
vt 0.995347 0.521938
vt 0.794378 0.870026
vt 0.794378 0.833852
vt 0.964019 0.540026
vt 0.593409 0.521939
vt 0.624737 0.540026
vt 0.794378 0.870027
vt 0.593409 0.521939
vt 0.624737 0.540026
vt 0.794378 0.833852
vt 0.995347 0.521938
vt 0.964019 0.540025
vt 0.995347 0.521938
vt 0.794378 0.870027
vt 0.794378 0.833852
vt 0.964019 0.540026
vt 0.593409 0.521938
vt 0.624737 0.540026
vt 0.794378 0.833852
vt 0.794378 0.870026
vt 0.624737 0.540026
vt 0.949814 0.548227
vt 0.794378 0.817449
vt 0.638942 0.548227
vt 0.794378 0.817449
vt 0.638942 0.548227
vt 0.949814 0.548227
vt 0.949814 0.548227
vt 0.794378 0.817449
vt 0.638942 0.548227
vt 0.794378 0.817449
s 0
usemtl MatGeneral
f 1/1/1 5/2/1 8/3/1 7/4/1
f 5/2/1 2/5/1 9/6/1 8/3/1
f 2/5/1 1/1/1 7/4/1 9/6/1
f 5/7/2 4/8/2 11/9/2 10/10/2
f 4/8/2 2/11/2 12/12/2 11/9/2
f 2/11/2 5/7/2 10/10/2 12/12/2
f 4/13/3 5/14/3 14/15/3 13/16/3
f 5/14/3 3/17/3 15/18/3 14/15/3
f 3/17/3 4/13/3 13/16/3 15/18/3
f 3/11/4 5/2/4 17/19/4 16/12/4
f 5/2/4 1/8/4 18/6/4 17/19/4
f 1/8/4 3/11/4 16/12/4 18/6/4
f 3/13/5 6/14/5 20/15/5 19/16/5
f 6/14/5 4/17/5 21/18/5 20/15/5
f 4/17/5 3/13/5 19/16/5 21/18/5
f 6/20/6 2/5/6 23/21/6 22/19/6
f 2/5/6 4/1/6 24/4/6 23/21/6
f 4/1/6 6/20/6 22/19/6 24/4/6
f 2/1/7 6/2/7 26/3/7 25/4/7
f 6/2/7 1/5/7 27/6/7 26/3/7
f 1/5/7 2/1/7 25/4/7 27/6/7
f 1/13/8 6/14/8 29/15/8 28/16/8
f 6/14/8 3/17/8 30/18/8 29/15/8
f 3/17/8 1/13/8 28/16/8 30/18/8
f 31/22/1 32/23/1 33/24/1
f 8/3/9 32/23/9 31/22/9 7/4/9
f 9/6/10 33/24/10 32/23/10 8/3/10
f 7/4/11 31/22/11 33/24/11 9/6/11
f 34/25/2 35/26/2 36/27/2
f 11/9/12 35/26/12 34/25/12 10/10/12
f 12/12/13 36/27/13 35/26/13 11/9/13
f 10/10/14 34/25/14 36/27/14 12/12/14
f 37/28/3 38/29/3 39/30/3
f 14/15/15 38/29/15 37/28/15 13/16/15
f 15/18/16 39/30/16 38/29/16 14/15/16
f 13/16/17 37/28/17 39/30/17 15/18/17
f 40/27/4 41/31/4 42/26/4
f 17/19/18 41/31/18 40/27/18 16/12/18
f 18/6/19 42/26/19 41/31/19 17/19/19
f 16/12/20 40/27/20 42/26/20 18/6/20
f 43/28/5 44/29/5 45/30/5
f 20/15/21 44/29/21 43/28/21 19/16/21
f 21/18/22 45/30/22 44/29/22 20/15/22
f 19/16/23 43/28/23 45/30/23 21/18/23
f 46/31/6 47/24/6 48/22/6
f 23/21/24 47/24/24 46/31/24 22/19/24
f 24/4/25 48/22/25 47/24/25 23/21/25
f 22/19/26 46/31/26 48/22/26 24/4/26
f 49/22/7 50/23/7 51/24/7
f 26/3/27 50/23/27 49/22/27 25/4/27
f 27/6/28 51/24/28 50/23/28 26/3/28
f 25/4/29 49/22/29 51/24/29 27/6/29
f 52/28/8 53/29/8 54/30/8
f 29/15/30 53/29/30 52/28/30 28/16/30
f 30/18/31 54/30/31 53/29/31 29/15/31
f 28/16/32 52/28/32 54/30/32 30/18/32
