# Blender 4.5.3 LTS
# www.blender.org
mtllib D8Col.mtl
o D8Collision
v -1.030000 0.000000 1.030000
v 1.030000 0.000000 1.030000
v -1.030000 0.000000 -1.030000
v 1.030000 0.000000 -1.030000
v 0.000000 -1.400000 0.000000
v 0.000000 1.400000 0.000000
vn -0.0000 0.5926 -0.8055
vn -0.8055 0.5926 -0.0000
vn -0.0000 0.5926 0.8055
vn 0.8055 0.5926 -0.0000
vn -0.0000 -0.5926 0.8055
vn -0.8055 -0.5926 -0.0000
vn -0.0000 -0.5926 -0.8055
vn 0.8055 -0.5926 -0.0000
vt 0.000000 0.000000
vt 1.000000 0.000000
vt 0.500000 0.500000
vt 1.000000 1.000000
vt 0.000000 1.000000
s 0
f 1/1/1 2/2/1 5/3/1
f 5/3/2 2/2/2 4/4/2
f 4/4/3 3/5/3 5/3/3
f 3/5/4 1/1/4 5/3/4
f 3/5/5 4/4/5 6/3/5
f 6/3/6 4/4/6 2/2/6
f 2/2/7 1/1/7 6/3/7
f 1/1/8 3/5/8 6/3/8
